<?xml version="1.0" encoding="UTF-8" standalone="no"?>
<!-- Created with Inkscape (http://www.inkscape.org/) -->

<svg
   xmlns:ns0="http://www.iki.fi/pav/software/textext/"
   xmlns:osb="http://www.openswatchbook.org/uri/2009/osb"
   xmlns:dc="http://purl.org/dc/elements/1.1/"
   xmlns:cc="http://creativecommons.org/ns#"
   xmlns:rdf="http://www.w3.org/1999/02/22-rdf-syntax-ns#"
   xmlns:svg="http://www.w3.org/2000/svg"
   xmlns="http://www.w3.org/2000/svg"
   xmlns:xlink="http://www.w3.org/1999/xlink"
   xmlns:sodipodi="http://sodipodi.sourceforge.net/DTD/sodipodi-0.dtd"
   xmlns:inkscape="http://www.inkscape.org/namespaces/inkscape"
   inkscape:export-ydpi="90"
   inkscape:export-xdpi="90"
   inkscape:export-filename="/home/vsilv/Programming/uni/physik/fp/squid/figures/magnetic_field.png"
   sodipodi:docname="magnetic_field.svg"
   inkscape:version="0.48.5 r10040"
   version="1.1"
   id="svg2"
   height="1052.3622047"
   width="744.09448819">
  <sodipodi:namedview
     id="base"
     pagecolor="#ffffff"
     bordercolor="#666666"
     borderopacity="1.0"
     inkscape:pageopacity="0.0"
     inkscape:pageshadow="2"
     inkscape:zoom="0.98994949"
     inkscape:cx="397.80258"
     inkscape:cy="702.48069"
     inkscape:document-units="px"
     inkscape:current-layer="layer1"
     showgrid="false"
     inkscape:window-width="1912"
     inkscape:window-height="1027"
     inkscape:window-x="0"
     inkscape:window-y="27"
     inkscape:window-maximized="1" />
  <defs
     id="defs4">
    <marker
       inkscape:stockid="Arrow1Lend"
       orient="auto"
       refY="0.0"
       refX="0.0"
       id="Arrow1Lend"
       style="overflow:visible;">
      <path
         id="path3810"
         d="M 0.0,0.0 L 5.0,-5.0 L -12.5,0.0 L 5.0,5.0 L 0.0,0.0 z "
         style="fill-rule:evenodd;stroke:#000000;stroke-width:1.0pt;"
         transform="scale(0.8) rotate(180) translate(12.5,0)" />
    </marker>
    <marker
       inkscape:stockid="Arrow1Lstart"
       orient="auto"
       refY="0.0"
       refX="0.0"
       id="Arrow1Lstart"
       style="overflow:visible">
      <path
         id="path3807"
         d="M 0.0,0.0 L 5.0,-5.0 L -12.5,0.0 L 5.0,5.0 L 0.0,0.0 z "
         style="fill-rule:evenodd;stroke:#000000;stroke-width:1.0pt"
         transform="scale(0.8) translate(12.5,0)" />
    </marker>
    <marker
       inkscape:stockid="Arrow1Mend"
       orient="auto"
       refY="0.0"
       refX="0.0"
       id="Arrow1Mend"
       style="overflow:visible;">
      <path
         id="path3816"
         d="M 0.0,0.0 L 5.0,-5.0 L -12.5,0.0 L 5.0,5.0 L 0.0,0.0 z "
         style="fill-rule:evenodd;stroke:#000000;stroke-width:1.0pt;"
         transform="scale(0.4) rotate(180) translate(10,0)" />
    </marker>
    <marker
       inkscape:stockid="Arrow1Mstart"
       orient="auto"
       refY="0.0"
       refX="0.0"
       id="Arrow1Mstart"
       style="overflow:visible">
      <path
         id="path3813"
         d="M 0.0,0.0 L 5.0,-5.0 L -12.5,0.0 L 5.0,5.0 L 0.0,0.0 z "
         style="fill-rule:evenodd;stroke:#000000;stroke-width:1.0pt"
         transform="scale(0.4) translate(10,0)" />
    </marker>
    <linearGradient
       id="linearGradient3769"
       osb:paint="solid">
      <stop
         style="stop-color:#000000;stop-opacity:1;"
         offset="0"
         id="stop3771" />
    </linearGradient>
    <linearGradient
       id="linearGradient3755"
       osb:paint="gradient">
      <stop
         style="stop-color:#000000;stop-opacity:1;"
         offset="0"
         id="stop3757" />
      <stop
         style="stop-color:#000000;stop-opacity:0;"
         offset="1"
         id="stop3759" />
    </linearGradient>
  </defs>
  <metadata
     id="metadata7">
    <rdf:RDF>
      <cc:Work
         rdf:about="">
        <dc:format>image/svg+xml</dc:format>
        <dc:type
           rdf:resource="http://purl.org/dc/dcmitype/StillImage" />
        <dc:title></dc:title>
      </cc:Work>
    </rdf:RDF>
  </metadata>
  <g
     inkscape:label="Layer 1"
     inkscape:groupmode="layer"
     id="layer1">
    <path
       sodipodi:type="arc"
       style="opacity:0.8048782;fill:none;stroke:#000000;stroke-width:25.89999962;stroke-miterlimit:4;stroke-opacity:1;stroke-dasharray:none"
       id="path2985"
       sodipodi:cx="325.71429"
       sodipodi:cy="360.93362"
       sodipodi:rx="225.71428"
       sodipodi:ry="225.71428"
       d="m 551.42857,360.93362 a 225.71428,225.71428 0 1 1 -451.42855,0 225.71428,225.71428 0 1 1 451.42855,0 z"
       transform="translate(5.7142896,1.428568)" />
    <path
       sodipodi:type="arc"
       style="opacity:0.8048782;fill:none;stroke:#ffffff;stroke-width:9.60000038;stroke-miterlimit:4;stroke-opacity:1;stroke-dasharray:none"
       id="path2985-8"
       sodipodi:cx="325.71429"
       sodipodi:cy="360.93362"
       sodipodi:rx="225.71428"
       sodipodi:ry="225.71428"
       d="m 551.42857,360.93362 a 225.71428,225.71428 0 1 1 -451.42855,0 225.71428,225.71428 0 1 1 451.42855,0 z"
       transform="translate(5.7142806,1.428558)" />
    <path
       style="fill:none;stroke:#000000;stroke-width:2;stroke-linecap:butt;stroke-linejoin:miter;stroke-miterlimit:4;stroke-opacity:1;stroke-dasharray:none;marker-start:url(#Arrow1Mstart);marker-end:url(#Arrow1Mend)"
       d="m 13.569355,369.98294 322.787335,0 0,-335.512023"
       id="path3801"
       inkscape:connector-curvature="0" />
    <g
       transform="matrix(10.29026,0,0,10.29026,-1955.6423,-1325.3523)"
       ns0:text="$x$"
       ns0:preamble=""
       id="g4450">
      <defs
         id="defs4452">
        <g
           id="g4454">
          <symbol
             style="overflow:visible"
             overflow="visible"
             id="textext-a9a45495-0">
            <path
               inkscape:connector-curvature="0"
               style="stroke:none"
               d=""
               id="path4457" />
          </symbol>
          <symbol
             style="overflow:visible"
             overflow="visible"
             id="textext-a9a45495-1">
            <path
               inkscape:connector-curvature="0"
               style="stroke:none"
               d="M 3.328125,-3.015625 C 3.390625,-3.265625 3.625,-4.1875 4.3125,-4.1875 c 0.046875,0 0.296875,0 0.5,0.125 C 4.53125,-4 4.34375,-3.765625 4.34375,-3.515625 c 0,0.15625 0.109375,0.34375 0.375,0.34375 0.21875,0 0.53125,-0.171875 0.53125,-0.578125 0,-0.515625 -0.578125,-0.65625 -0.921875,-0.65625 -0.578125,0 -0.921875,0.53125 -1.046875,0.75 -0.25,-0.65625 -0.78125,-0.75 -1.078125,-0.75 -1.03125,0 -1.609375,1.28125 -1.609375,1.53125 0,0.109375 0.109375,0.109375 0.125,0.109375 0.078125,0 0.109375,-0.03125 0.125,-0.109375 0.34375,-1.0625 1,-1.3125 1.34375,-1.3125 0.1875,0 0.53125,0.09375 0.53125,0.671875 0,0.3125 -0.171875,0.96875 -0.53125,2.375 -0.15625,0.609375 -0.515625,1.03125 -0.953125,1.03125 -0.0625,0 -0.28125,0 -0.5,-0.125 0.25,-0.0625 0.46875,-0.265625 0.46875,-0.546875 0,-0.265625 -0.21875,-0.34375 -0.359375,-0.34375 -0.3125,0 -0.546875,0.25 -0.546875,0.578125 0,0.453125 0.484375,0.65625 0.921875,0.65625 0.671875,0 1.03125,-0.703125 1.046875,-0.75 0.125,0.359375 0.484375,0.75 1.078125,0.75 1.03125,0 1.59375,-1.28125 1.59375,-1.53125 0,-0.109375 -0.078125,-0.109375 -0.109375,-0.109375 -0.09375,0 -0.109375,0.046875 -0.140625,0.109375 -0.328125,1.078125 -1,1.3125 -1.3125,1.3125 -0.390625,0 -0.546875,-0.3125 -0.546875,-0.65625 0,-0.21875 0.046875,-0.4375 0.15625,-0.875 z"
               id="path4460" />
          </symbol>
        </g>
      </defs>
      <g
         id="textext-a9a45495-2">
        <g
           style="fill:#000000;fill-opacity:1"
           id="g4463">
          <use
             height="1052.3622"
             width="744.09448"
             xlink:href="#textext-a9a45495-1"
             x="223.43201"
             y="134.765"
             id="use4465" />
        </g>
      </g>
    </g>
    <g
       id="g4519"
       ns0:preamble=""
       ns0:text="$y$"
       transform="matrix(8.748184,0,0,8.748184,-1933.4925,-761.47217)">
      <defs
         id="defs4521">
        <g
           id="g4523">
          <symbol
             id="textext-08baac82-0"
             overflow="visible"
             style="overflow:visible">
            <path
               id="path4526"
               d=""
               style="stroke:none"
               inkscape:connector-curvature="0" />
          </symbol>
          <symbol
             id="textext-08baac82-1"
             overflow="visible"
             style="overflow:visible">
            <path
               id="path4529"
               d="m 4.84375,-3.796875 c 0.046875,-0.140625 0.046875,-0.15625 0.046875,-0.234375 0,-0.171875 -0.140625,-0.265625 -0.296875,-0.265625 -0.09375,0 -0.25,0.0625 -0.34375,0.203125 -0.015625,0.0625 -0.109375,0.359375 -0.140625,0.546875 -0.078125,0.25 -0.140625,0.53125 -0.203125,0.796875 l -0.453125,1.796875 c -0.03125,0.140625 -0.46875,0.84375 -1.125,0.84375 -0.5,0 -0.609375,-0.4375 -0.609375,-0.8125 C 1.71875,-1.375 1.890625,-2 2.21875,-2.875 2.375,-3.28125 2.421875,-3.390625 2.421875,-3.59375 c 0,-0.4375 -0.3125,-0.8125 -0.8125,-0.8125 -0.953125,0 -1.3125,1.453125 -1.3125,1.53125 0,0.109375 0.09375,0.109375 0.109375,0.109375 0.109375,0 0.109375,-0.03125 0.15625,-0.1875 0.28125,-0.9375 0.671875,-1.234375 1.015625,-1.234375 0.078125,0 0.25,0 0.25,0.3125 0,0.25 -0.109375,0.515625 -0.171875,0.703125 -0.40625,1.0625 -0.578125,1.625 -0.578125,2.09375 0,0.890625 0.625,1.1875 1.21875,1.1875 0.390625,0 0.71875,-0.171875 1,-0.453125 -0.125,0.515625 -0.25,1.015625 -0.640625,1.546875 -0.265625,0.328125 -0.640625,0.625 -1.09375,0.625 -0.140625,0 -0.59375,-0.03125 -0.765625,-0.421875 0.15625,0 0.296875,0 0.421875,-0.125 C 1.328125,1.203125 1.421875,1.0625 1.421875,0.875 1.421875,0.5625 1.15625,0.53125 1.0625,0.53125 0.828125,0.53125 0.5,0.6875 0.5,1.171875 c 0,0.5 0.4375,0.875 1.0625,0.875 1.015625,0 2.046875,-0.90625 2.328125,-2.03125 z"
               style="stroke:none"
               inkscape:connector-curvature="0" />
          </symbol>
        </g>
      </defs>
      <g
         id="textext-08baac82-2">
        <g
           id="g4532"
           style="fill:#000000;fill-opacity:1">
          <use
             id="use4534"
             y="134.765"
             x="223.43201"
             xlink:href="#textext-08baac82-1"
             width="744.09448"
             height="1052.3622" />
        </g>
      </g>
    </g>
    <path
       style="fill:none;stroke:#000000;stroke-width:2;stroke-linecap:butt;stroke-linejoin:miter;stroke-miterlimit:4;stroke-opacity:1;stroke-dasharray:none;marker-start:none;marker-mid:none;marker-end:url(#Arrow1Mend)"
       d="M 336.10447,369.5709 497.25521,671.37496"
       id="path4571"
       inkscape:connector-curvature="0" />
    <g
       transform="matrix(12.212321,0,0,12.212321,-2246.2717,-1019.1773)"
       ns0:text="$z$"
       ns0:preamble=""
       id="g6297">
      <defs
         id="defs6299">
        <g
           id="g6301">
          <symbol
             style="overflow:visible"
             overflow="visible"
             id="textext-7137bd72-0">
            <path
               inkscape:connector-curvature="0"
               style="stroke:none"
               d=""
               id="path6304" />
          </symbol>
          <symbol
             style="overflow:visible"
             overflow="visible"
             id="textext-7137bd72-1">
            <path
               inkscape:connector-curvature="0"
               style="stroke:none"
               d="m 1.328125,-0.828125 c 0.53125,-0.578125 0.828125,-0.828125 1.1875,-1.140625 0,0 0.609375,-0.53125 0.96875,-0.890625 C 4.4375,-3.78125 4.65625,-4.265625 4.65625,-4.3125 c 0,-0.09375 -0.09375,-0.09375 -0.109375,-0.09375 -0.078125,0 -0.09375,0.015625 -0.15625,0.109375 -0.296875,0.484375 -0.5,0.640625 -0.734375,0.640625 -0.25,0 -0.359375,-0.15625 -0.515625,-0.328125 -0.1875,-0.21875 -0.359375,-0.421875 -0.6875,-0.421875 -0.75,0 -1.203125,0.921875 -1.203125,1.140625 0,0.046875 0.03125,0.109375 0.109375,0.109375 0.09375,0 0.109375,-0.046875 0.140625,-0.109375 0.1875,-0.46875 0.765625,-0.46875 0.84375,-0.46875 0.203125,0 0.390625,0.0625 0.625,0.140625 0.40625,0.15625 0.515625,0.15625 0.765625,0.15625 -0.359375,0.421875 -1.1875,1.140625 -1.375,1.296875 l -0.90625,0.84375 C 0.78125,-0.625 0.421875,-0.0625 0.421875,0.015625 c 0,0.09375 0.109375,0.09375 0.125,0.09375 0.078125,0 0.09375,-0.015625 0.15625,-0.125 0.234375,-0.359375 0.53125,-0.625 0.859375,-0.625 0.21875,0 0.328125,0.09375 0.578125,0.375 0.15625,0.21875 0.34375,0.375 0.625,0.375 1,0 1.578125,-1.265625 1.578125,-1.53125 0,-0.046875 -0.046875,-0.109375 -0.125,-0.109375 -0.09375,0 -0.109375,0.0625 -0.140625,0.140625 C 3.84375,-0.75 3.203125,-0.5625 2.875,-0.5625 c -0.1875,0 -0.375,-0.0625 -0.578125,-0.125 -0.34375,-0.125 -0.5,-0.171875 -0.703125,-0.171875 -0.015625,0 -0.171875,0 -0.265625,0.03125 z"
               id="path6307" />
          </symbol>
        </g>
      </defs>
      <g
         id="textext-7137bd72-2">
        <g
           style="fill:#000000;fill-opacity:1"
           id="g6310">
          <use
             height="1052.3622"
             width="744.09448"
             xlink:href="#textext-7137bd72-1"
             x="223.43201"
             y="134.765"
             id="use6312" />
        </g>
      </g>
    </g>
    <path
       sodipodi:nodetypes="ccscc"
       inkscape:connector-curvature="0"
       id="path6366"
       d="m 369.49899,133.21118 -0.74924,11.20851 c 0,0 -62.40351,-3.94938 -59.67934,-1.52812 1.61499,1.43533 -3.79962,-11.22867 -3.79962,-11.22867 0,0 63.7308,-1.6544 64.2282,1.54828 z"
       style="fill:#ff0000;fill-opacity:1;stroke:#ff0000;stroke-width:1.20581758px;stroke-linecap:butt;stroke-linejoin:miter;stroke-opacity:1" />
    <g
       id="g6421"
       ns0:preamble=""
       ns0:text="$Idl$"
       transform="matrix(8.0181993,0.27526358,1.5490955,7.135558,-1769.164,-909.11688)"
       inkscape:transform-center-x="-11.552658"
       inkscape:transform-center-y="-27.773298"
       style="fill:#ff0000;stroke:#ff0000">
      <defs
         id="defs6423">
        <g
           id="g6425">
          <symbol
             id="textext-98284871-0"
             overflow="visible"
             style="overflow:visible">
            <path
               id="path6428"
               d=""
               style="stroke:none"
               inkscape:connector-curvature="0" />
          </symbol>
          <symbol
             id="textext-98284871-1"
             overflow="visible"
             style="overflow:visible">
            <path
               id="path6431"
               d="M 3.734375,-6.046875 C 3.8125,-6.40625 3.84375,-6.5 4.640625,-6.5 c 0.234375,0 0.3125,0 0.3125,-0.1875 0,-0.125 -0.109375,-0.125 -0.140625,-0.125 -0.296875,0 -1.03125,0.03125 -1.328125,0.03125 -0.296875,0 -1.015625,-0.03125 -1.328125,-0.03125 -0.0625,0 -0.1875,0 -0.1875,0.203125 C 1.96875,-6.5 2.046875,-6.5 2.25,-6.5 c 0.40625,0 0.6875,0 0.6875,0.1875 0,0.046875 0,0.078125 -0.03125,0.15625 l -1.34375,5.375 c -0.09375,0.375 -0.109375,0.46875 -0.90625,0.46875 -0.234375,0 -0.3125,0 -0.3125,0.203125 C 0.34375,0 0.453125,0 0.484375,0 0.78125,0 1.5,-0.03125 1.796875,-0.03125 2.09375,-0.03125 2.828125,0 3.125,0 c 0.078125,0 0.203125,0 0.203125,-0.1875 0,-0.125 -0.078125,-0.125 -0.296875,-0.125 -0.1875,0 -0.234375,0 -0.421875,-0.015625 -0.21875,-0.015625 -0.25,-0.0625 -0.25,-0.171875 0,-0.078125 0.015625,-0.15625 0.03125,-0.234375 z"
               style="stroke:none"
               inkscape:connector-curvature="0" />
          </symbol>
          <symbol
             id="textext-98284871-2"
             overflow="visible"
             style="overflow:visible">
            <path
               id="path6434"
               d="m 5.140625,-6.8125 c 0,0 0,-0.109375 -0.125,-0.109375 -0.15625,0 -1.09375,0.09375 -1.265625,0.109375 -0.078125,0.015625 -0.140625,0.0625 -0.140625,0.1875 0,0.125 0.09375,0.125 0.234375,0.125 0.484375,0 0.5,0.0625 0.5,0.171875 L 4.3125,-6.125 3.71875,-3.765625 C 3.53125,-4.140625 3.25,-4.40625 2.796875,-4.40625 c -1.15625,0 -2.390625,1.46875 -2.390625,2.921875 0,0.9375 0.546875,1.59375 1.3125,1.59375 0.203125,0 0.703125,-0.046875 1.296875,-0.75 0.078125,0.421875 0.4375,0.75 0.90625,0.75 0.359375,0 0.578125,-0.234375 0.75,-0.546875 0.15625,-0.359375 0.296875,-0.96875 0.296875,-0.984375 0,-0.109375 -0.09375,-0.109375 -0.125,-0.109375 -0.09375,0 -0.109375,0.046875 -0.140625,0.1875 -0.171875,0.640625 -0.34375,1.234375 -0.75,1.234375 -0.28125,0 -0.296875,-0.265625 -0.296875,-0.453125 0,-0.25 0.015625,-0.3125 0.046875,-0.484375 z m -2.0625,5.625 C 3.015625,-1 3.015625,-0.984375 2.875,-0.8125 2.4375,-0.265625 2.03125,-0.109375 1.75,-0.109375 c -0.5,0 -0.640625,-0.546875 -0.640625,-0.9375 0,-0.5 0.3125,-1.71875 0.546875,-2.1875 0.3125,-0.578125 0.75,-0.953125 1.15625,-0.953125 0.640625,0 0.78125,0.8125 0.78125,0.875 0,0.0625 -0.015625,0.125 -0.03125,0.171875 z"
               style="stroke:none"
               inkscape:connector-curvature="0" />
          </symbol>
          <symbol
             id="textext-98284871-3"
             overflow="visible"
             style="overflow:visible">
            <path
               id="path6437"
               d="m 2.578125,-6.8125 c 0,0 0,-0.109375 -0.140625,-0.109375 -0.21875,0 -0.953125,0.078125 -1.21875,0.109375 -0.078125,0 -0.1875,0.015625 -0.1875,0.203125 0,0.109375 0.109375,0.109375 0.25,0.109375 0.484375,0 0.5,0.09375 0.5,0.171875 L 1.75,-6.125 0.484375,-1.140625 C 0.453125,-1.03125 0.4375,-0.96875 0.4375,-0.8125 c 0,0.578125 0.4375,0.921875 0.90625,0.921875 0.328125,0 0.578125,-0.203125 0.75,-0.5625 0.171875,-0.375 0.296875,-0.953125 0.296875,-0.96875 0,-0.109375 -0.09375,-0.109375 -0.125,-0.109375 -0.09375,0 -0.109375,0.046875 -0.125,0.1875 C 1.96875,-0.703125 1.78125,-0.109375 1.375,-0.109375 c -0.296875,0 -0.296875,-0.3125 -0.296875,-0.453125 0,-0.25 0.015625,-0.296875 0.0625,-0.484375 z"
               style="stroke:none"
               inkscape:connector-curvature="0" />
          </symbol>
        </g>
      </defs>
      <g
         id="textext-98284871-4"
         style="fill:#ff0000;stroke:#ff0000">
        <g
           id="g6440"
           style="fill:#ff0000;fill-opacity:1;stroke:#ff0000">
          <use
             id="use6442"
             y="134.765"
             x="223.43201"
             xlink:href="#textext-98284871-1"
             width="744.09448"
             height="1052.3622"
             style="fill:#ff0000;stroke:#ff0000" />
        </g>
        <g
           id="g6444"
           style="fill:#ff0000;fill-opacity:1;stroke:#ff0000">
          <use
             id="use6446"
             y="134.765"
             x="228.58864"
             xlink:href="#textext-98284871-2"
             width="744.09448"
             height="1052.3622"
             style="fill:#ff0000;stroke:#ff0000" />
          <use
             id="use6448"
             y="134.765"
             x="233.77417"
             xlink:href="#textext-98284871-3"
             width="744.09448"
             height="1052.3622"
             style="fill:#ff0000;stroke:#ff0000" />
        </g>
      </g>
    </g>
    <path
       style="fill:none;stroke:#000080;stroke-width:2;stroke-linecap:butt;stroke-linejoin:miter;stroke-miterlimit:4;stroke-opacity:1;stroke-dasharray:none"
       d="M 335.37065,138.17413 472.75139,628.09811 335.37065,370.50921 z"
       id="path7092"
       inkscape:connector-curvature="0"
       sodipodi:nodetypes="cccc" />
    <path
       style="fill:none;stroke:#000000;stroke-width:1px;stroke-linecap:butt;stroke-linejoin:miter;stroke-opacity:1"
       d="m 414.16254,420.00669 c 0,0 -31.31473,-5.05076 -37.37564,29.29442"
       id="path7096"
       inkscape:connector-curvature="0" />
    <g
       transform="matrix(5.1025014,0,0,5.1025014,-751.68573,-220.98208)"
       ns0:text="$\\theta$"
       ns0:preamble=""
       id="g7170">
      <defs
         id="defs7172">
        <g
           id="g7174">
          <symbol
             style="overflow:visible"
             overflow="visible"
             id="textext-6281a133-0">
            <path
               inkscape:connector-curvature="0"
               style="stroke:none"
               d=""
               id="path7177" />
          </symbol>
          <symbol
             style="overflow:visible"
             overflow="visible"
             id="textext-6281a133-1">
            <path
               inkscape:connector-curvature="0"
               style="stroke:none"
               d="m 4.53125,-4.984375 c 0,-0.65625 -0.171875,-2.046875 -1.1875,-2.046875 -1.390625,0 -2.921875,2.8125 -2.921875,5.09375 0,0.9375 0.28125,2.046875 1.1875,2.046875 1.40625,0 2.921875,-2.859375 2.921875,-5.09375 z M 1.46875,-3.625 C 1.640625,-4.25 1.84375,-5.046875 2.25,-5.765625 2.515625,-6.25 2.875,-6.8125 3.328125,-6.8125 c 0.484375,0 0.546875,0.640625 0.546875,1.203125 0,0.5 -0.078125,1 -0.3125,1.984375 z m 2,0.328125 C 3.359375,-2.84375 3.15625,-2 2.765625,-1.28125 c -0.34375,0.6875 -0.71875,1.171875 -1.15625,1.171875 -0.328125,0 -0.53125,-0.296875 -0.53125,-1.21875 0,-0.421875 0.0625,-1 0.3125,-1.96875 z"
               id="path7180" />
          </symbol>
        </g>
      </defs>
      <g
         id="textext-6281a133-2">
        <g
           style="fill:#000000;fill-opacity:1"
           id="g7183">
          <use
             height="1052.3622"
             width="744.09448"
             xlink:href="#textext-6281a133-1"
             x="223.43201"
             y="134.765"
             id="use7185" />
        </g>
      </g>
    </g>
    <path
       inkscape:connector-curvature="0"
       id="path7267"
       d="m 327.28942,150.29595 0,216.17264"
       style="fill:none;stroke:#000000;stroke-width:2;stroke-linecap:butt;stroke-linejoin:miter;stroke-opacity:1;stroke-miterlimit:4;stroke-dasharray:none;marker-start:url(#Arrow1Mstart);marker-mid:none;marker-end:url(#Arrow1Mend)" />
    <g
       id="g8292"
       ns0:preamble=""
       ns0:text="$r$"
       transform="matrix(6.020762,0,0,6.020762,-1052.5788,-538.33269)">
      <defs
         id="defs8294">
        <g
           id="g8296">
          <symbol
             id="textext-f1b0f9d8-0"
             overflow="visible"
             style="overflow:visible">
            <path
               id="path8299"
               d=""
               style="stroke:none"
               inkscape:connector-curvature="0" />
          </symbol>
          <symbol
             id="textext-f1b0f9d8-1"
             overflow="visible"
             style="overflow:visible">
            <path
               id="path8302"
               d="m 0.875,-0.59375 c -0.03125,0.15625 -0.09375,0.390625 -0.09375,0.4375 0,0.171875 0.140625,0.265625 0.296875,0.265625 0.125,0 0.296875,-0.078125 0.375,-0.28125 C 1.46875,-0.203125 1.796875,-1.5625 1.84375,-1.75 c 0.078125,-0.328125 0.265625,-1.015625 0.3125,-1.296875 0.046875,-0.125 0.328125,-0.59375 0.5625,-0.8125 0.078125,-0.0625 0.375,-0.328125 0.796875,-0.328125 0.265625,0 0.40625,0.125 0.421875,0.125 -0.296875,0.046875 -0.515625,0.28125 -0.515625,0.546875 0,0.15625 0.109375,0.34375 0.375,0.34375 0.265625,0 0.546875,-0.234375 0.546875,-0.59375 0,-0.34375 -0.3125,-0.640625 -0.828125,-0.640625 C 2.875,-4.40625 2.4375,-3.921875 2.25,-3.640625 2.15625,-4.09375 1.796875,-4.40625 1.328125,-4.40625 0.875,-4.40625 0.6875,-4.015625 0.59375,-3.84375 0.421875,-3.5 0.296875,-2.90625 0.296875,-2.875 c 0,0.109375 0.09375,0.109375 0.109375,0.109375 0.109375,0 0.109375,-0.015625 0.171875,-0.234375 0.171875,-0.703125 0.375,-1.1875 0.734375,-1.1875 0.15625,0 0.296875,0.078125 0.296875,0.453125 0,0.21875 -0.03125,0.328125 -0.15625,0.84375 z"
               style="stroke:none"
               inkscape:connector-curvature="0" />
          </symbol>
        </g>
      </defs>
      <g
         id="textext-f1b0f9d8-2">
        <g
           id="g8305"
           style="fill:#000000;fill-opacity:1">
          <use
             id="use8307"
             y="134.765"
             x="223.43201"
             xlink:href="#textext-f1b0f9d8-1"
             width="744.09448"
             height="1052.3622" />
        </g>
      </g>
    </g>
  </g>
</svg>
