<?xml version="1.0" encoding="UTF-8" standalone="no"?>
<!-- Created with Inkscape (http://www.inkscape.org/) -->

<svg
   xmlns:ns0="http://www.iki.fi/pav/software/textext/"
   xmlns:dc="http://purl.org/dc/elements/1.1/"
   xmlns:cc="http://creativecommons.org/ns#"
   xmlns:rdf="http://www.w3.org/1999/02/22-rdf-syntax-ns#"
   xmlns:svg="http://www.w3.org/2000/svg"
   xmlns="http://www.w3.org/2000/svg"
   xmlns:xlink="http://www.w3.org/1999/xlink"
   xmlns:sodipodi="http://sodipodi.sourceforge.net/DTD/sodipodi-0.dtd"
   xmlns:inkscape="http://www.inkscape.org/namespaces/inkscape"
   width="210mm"
   height="297mm"
   viewBox="0 0 744.09448819 1052.3622047"
   id="svg6761"
   version="1.1"
   inkscape:version="0.91 r13725"
   sodipodi:docname="22Na.svg">
  <sodipodi:namedview
     id="base"
     pagecolor="#ffffff"
     bordercolor="#666666"
     borderopacity="1.0"
     inkscape:pageopacity="0.0"
     inkscape:pageshadow="2"
     inkscape:zoom="1.4"
     inkscape:cx="464.87203"
     inkscape:cy="786.60961"
     inkscape:document-units="px"
     inkscape:current-layer="layer1"
     showgrid="false"
     inkscape:window-width="1081"
     inkscape:window-height="495"
     inkscape:window-x="2103"
     inkscape:window-y="173"
     inkscape:window-maximized="0" />
  <defs
     id="defs6763">
    <marker
       inkscape:stockid="Arrow2Mend"
       orient="auto"
       refY="0"
       refX="0"
       id="marker11193"
       style="overflow:visible"
       inkscape:isstock="true">
      <path
         inkscape:connector-curvature="0"
         id="path11195"
         style="fill:#ff0000;fill-opacity:1;fill-rule:evenodd;stroke:#ff0000;stroke-width:0.625;stroke-linejoin:round;stroke-opacity:1"
         d="M 8.7185878,4.0337352 -2.2072895,0.01601326 8.7185884,-4.0017078 c -1.7454984,2.3720609 -1.7354408,5.6174519 -6e-7,8.035443 z"
         transform="scale(-0.6,-0.6)" />
    </marker>
    <marker
       inkscape:isstock="true"
       style="overflow:visible"
       id="marker11153"
       refX="0"
       refY="0"
       orient="auto"
       inkscape:stockid="Arrow1Mstart">
      <path
         inkscape:connector-curvature="0"
         transform="matrix(0.4,0,0,0.4,4,0)"
         style="fill:#ff0000;fill-opacity:1;fill-rule:evenodd;stroke:#ff0000;stroke-width:1pt;stroke-opacity:1"
         d="M 0,0 5,-5 -12.5,0 5,5 0,0 Z"
         id="path11155" />
    </marker>
    <marker
       inkscape:collect="always"
       inkscape:isstock="true"
       style="overflow:visible"
       id="marker5430"
       refX="0"
       refY="0"
       orient="auto"
       inkscape:stockid="Arrow2Mend">
      <path
         transform="scale(-0.6,-0.6)"
         d="M 8.7185878,4.0337352 -2.2072895,0.01601326 8.7185884,-4.0017078 c -1.7454984,2.3720609 -1.7354408,5.6174519 -6e-7,8.035443 z"
         style="fill:#ff0000;fill-opacity:1;fill-rule:evenodd;stroke:#ff0000;stroke-width:0.625;stroke-linejoin:round;stroke-opacity:1"
         id="path5432"
         inkscape:connector-curvature="0" />
    </marker>
    <marker
       inkscape:collect="always"
       inkscape:stockid="Arrow1Mstart"
       orient="auto"
       refY="0"
       refX="0"
       id="Arrow1Mstart"
       style="overflow:visible"
       inkscape:isstock="true">
      <path
         id="path5016"
         d="M 0,0 5,-5 -12.5,0 5,5 0,0 Z"
         style="fill:#ff0000;fill-opacity:1;fill-rule:evenodd;stroke:#ff0000;stroke-width:1pt;stroke-opacity:1"
         transform="matrix(0.4,0,0,0.4,4,0)"
         inkscape:connector-curvature="0" />
    </marker>
  </defs>
  <metadata
     id="metadata6766">
    <rdf:RDF>
      <cc:Work
         rdf:about="">
        <dc:format>image/svg+xml</dc:format>
        <dc:type
           rdf:resource="http://purl.org/dc/dcmitype/StillImage" />
        <dc:title></dc:title>
      </cc:Work>
    </rdf:RDF>
  </metadata>
  <g
     id="layer1"
     inkscape:groupmode="layer"
     inkscape:label="Layer 1">
    <path
       inkscape:connector-curvature="0"
       id="path4136"
       d="m 354.30223,183.15361 159.79185,0"
       style="fill:none;fill-rule:evenodd;stroke:#000000;stroke-width:0.65844035px;stroke-linecap:butt;stroke-linejoin:miter;stroke-opacity:1" />
    <path
       inkscape:connector-curvature="0"
       id="path4136-2"
       d="m 415.98641,254.55802 92.64903,0"
       style="fill:none;fill-rule:evenodd;stroke:#000000;stroke-width:0.50137132px;stroke-linecap:butt;stroke-linejoin:miter;stroke-opacity:1" />
    <path
       inkscape:connector-curvature="0"
       id="path4136-2-9"
       d="m 416.99655,335.37022 92.64899,0"
       style="fill:none;fill-rule:evenodd;stroke:#000000;stroke-width:0.50137132px;stroke-linecap:butt;stroke-linejoin:miter;stroke-opacity:1" />
    <path
       sodipodi:nodetypes="cc"
       inkscape:connector-curvature="0"
       id="path4801"
       d="M 416.22268,254.53548 378.46824,183.44599"
       style="fill:#ff0000;fill-rule:evenodd;stroke:#ff0000;stroke-width:1px;stroke-linecap:butt;stroke-linejoin:miter;stroke-opacity:1;marker-start:url(#Arrow1Mstart)" />
    <path
       sodipodi:nodetypes="cc"
       inkscape:connector-curvature="0"
       id="path4803"
       d="m 378.46824,183.44599 38.954,151.96482"
       style="fill:#ff0000;fill-rule:evenodd;stroke:#ff0000;stroke-width:1px;stroke-linecap:butt;stroke-linejoin:miter;stroke-opacity:1;marker-end:url(#marker5430)" />
    <path
       style="fill:#ff0000;fill-rule:evenodd;stroke:#ff0000;stroke-width:1px;stroke-linecap:butt;stroke-linejoin:miter;stroke-opacity:1;marker-end:url(#marker11193)"
       d="m 501.93664,254.62461 1.7678,79.32532"
       id="path5394"
       inkscape:connector-curvature="0"
       sodipodi:nodetypes="cc" />
    <g
       ns0:text="$^{22}\\mathrm{Ne}$"
       ns0:preamble="/home/vsilv/fp/inkscapestyle.tex"
       transform="matrix(2,0,0,2,-2.1442471,57.15021)"
       id="g8474">
      <defs
         id="defs8476">
        <g
           id="g8478">
          <symbol
             overflow="visible"
             id="textext-4612f125-0">
            <path
               style="stroke:none;"
               d=""
               id="path8481" />
          </symbol>
          <symbol
             overflow="visible"
             id="textext-4612f125-1">
            <path
               style="stroke:none;"
               d="M 0.625 -3.203125 C 0.734375 -3.609375 0.90625 -4.046875 1.34375 -4.203125 C 1.5 -4.265625 1.671875 -4.28125 1.859375 -4.265625 C 2.21875 -4.234375 2.578125 -4.09375 2.796875 -3.78125 C 2.9375 -3.578125 2.984375 -3.328125 2.953125 -3.078125 C 2.875 -2.40625 2.28125 -1.984375 1.796875 -1.609375 C 1.40625 -1.3125 0.59375 -0.59375 0.59375 -0.59375 L 0.453125 -0.484375 C 0.390625 -0.40625 0.390625 -0.421875 0.390625 -0.265625 L 0.390625 0 L 3.484375 0 L 3.484375 -0.4375 L 0.84375 -0.4375 C 1.109375 -0.671875 1.90625 -1.34375 2.140625 -1.515625 C 2.578125 -1.84375 3.0625 -2.15625 3.34375 -2.640625 C 3.640625 -3.203125 3.453125 -3.921875 2.96875 -4.3125 C 2.4375 -4.765625 1.46875 -4.828125 0.875 -4.390625 C 0.65625 -4.234375 0.5 -3.984375 0.390625 -3.734375 C 0.375 -3.671875 0.328125 -3.609375 0.328125 -3.546875 C 0.34375 -3.515625 0.390625 -3.484375 0.40625 -3.4375 C 0.46875 -3.359375 0.546875 -3.265625 0.625 -3.203125 Z M 0.625 -3.203125 "
               id="path8484" />
          </symbol>
          <symbol
             overflow="visible"
             id="textext-4612f125-2">
            <path
               style="stroke:none;"
               d=""
               id="path8487" />
          </symbol>
          <symbol
             overflow="visible"
             id="textext-4612f125-3">
            <path
               style="stroke:none;"
               d="M 1 -6.921875 L 1 0 L 1.609375 0 L 1.609375 -6.34375 L 1.625 -6.34375 L 4.0625 -1.859375 C 4.421875 -1.25 4.71875 -0.609375 5.078125 -0.015625 C 5.359375 0.046875 5.734375 -0.015625 6.046875 0 L 6.046875 -6.921875 L 5.4375 -6.921875 L 5.4375 -0.578125 L 2.96875 -5.078125 C 2.625 -5.671875 2.328125 -6.3125 1.96875 -6.890625 C 1.6875 -6.953125 1.3125 -6.890625 1 -6.921875 Z M 1 -6.921875 "
               id="path8490" />
          </symbol>
          <symbol
             overflow="visible"
             id="textext-4612f125-4">
            <path
               style="stroke:none;"
               d="M 4.25 -1.09375 C 4.078125 -0.96875 3.9375 -0.828125 3.75 -0.71875 C 3.125 -0.375 2.359375 -0.28125 1.8125 -0.6875 C 1.3125 -1.046875 1.03125 -1.671875 1.03125 -2.5 L 4.328125 -2.5 C 4.328125 -3.234375 4.15625 -3.921875 3.734375 -4.34375 C 3.3125 -4.75 2.65625 -4.921875 2.109375 -4.78125 C 1.796875 -4.71875 1.53125 -4.578125 1.296875 -4.390625 C 0.671875 -3.875 0.421875 -3.046875 0.421875 -2.265625 C 0.453125 -1.25 1.140625 -0.203125 2.171875 0.03125 C 2.734375 0.15625 3.359375 0.046875 3.859375 -0.25 C 3.953125 -0.296875 4.234375 -0.46875 4.28125 -0.5625 C 4.3125 -0.609375 4.25 -1.09375 4.25 -1.09375 Z M 3.796875 -2.875 L 1.078125 -2.875 C 1.09375 -3.03125 1.140625 -3.1875 1.203125 -3.3125 C 1.421875 -3.84375 1.890625 -4.390625 2.609375 -4.3125 C 3.28125 -4.25 3.609375 -3.78125 3.75 -3.1875 C 3.765625 -3.09375 3.78125 -2.984375 3.796875 -2.875 Z M 3.796875 -2.875 "
               id="path8493" />
          </symbol>
        </g>
      </defs>
      <g
         id="textext-4612f125-5">
        <g
           style="fill:rgb(0%,0%,0%);fill-opacity:1;"
           id="g8496">
          <use
             xlink:href="#textext-4612f125-1"
             x="223.432"
             y="131.149"
             id="use8498" />
          <use
             xlink:href="#textext-4612f125-1"
             x="227.311525"
             y="131.149"
             id="use8500" />
        </g>
        <g
           style="fill:rgb(0%,0%,0%);fill-opacity:1;"
           id="g8502">
          <use
             xlink:href="#textext-4612f125-3"
             x="231.689"
             y="134.765"
             id="use8504" />
          <use
             xlink:href="#textext-4612f125-4"
             x="238.74551"
             y="134.765"
             id="use8506" />
        </g>
      </g>
    </g>
    <g
       id="g8843"
       transform="matrix(2,0,0,2,-3.1543871,-23.662)"
       ns0:preamble="/home/vsilv/fp/inkscapestyle.tex"
       ns0:text="$^{22}\\mathrm{Ne}^*$">
      <defs
         id="defs8845">
        <g
           id="g8847">
          <symbol
             id="textext-089c97ff-0"
             overflow="visible">
            <path
               id="path8850"
               d=""
               style="stroke:none;" />
          </symbol>
          <symbol
             id="textext-089c97ff-1"
             overflow="visible">
            <path
               id="path8853"
               d="M 0.625 -3.203125 C 0.734375 -3.609375 0.90625 -4.046875 1.34375 -4.203125 C 1.5 -4.265625 1.671875 -4.28125 1.859375 -4.265625 C 2.21875 -4.234375 2.578125 -4.09375 2.796875 -3.78125 C 2.9375 -3.578125 2.984375 -3.328125 2.953125 -3.078125 C 2.875 -2.40625 2.28125 -1.984375 1.796875 -1.609375 C 1.40625 -1.3125 0.59375 -0.59375 0.59375 -0.59375 L 0.453125 -0.484375 C 0.390625 -0.40625 0.390625 -0.421875 0.390625 -0.265625 L 0.390625 0 L 3.484375 0 L 3.484375 -0.4375 L 0.84375 -0.4375 C 1.109375 -0.671875 1.90625 -1.34375 2.140625 -1.515625 C 2.578125 -1.84375 3.0625 -2.15625 3.34375 -2.640625 C 3.640625 -3.203125 3.453125 -3.921875 2.96875 -4.3125 C 2.4375 -4.765625 1.46875 -4.828125 0.875 -4.390625 C 0.65625 -4.234375 0.5 -3.984375 0.390625 -3.734375 C 0.375 -3.671875 0.328125 -3.609375 0.328125 -3.546875 C 0.34375 -3.515625 0.390625 -3.484375 0.40625 -3.4375 C 0.46875 -3.359375 0.546875 -3.265625 0.625 -3.203125 Z M 0.625 -3.203125 "
               style="stroke:none;" />
          </symbol>
          <symbol
             id="textext-089c97ff-2"
             overflow="visible">
            <path
               id="path8856"
               d=""
               style="stroke:none;" />
          </symbol>
          <symbol
             id="textext-089c97ff-3"
             overflow="visible">
            <path
               id="path8859"
               d="M 1 -6.921875 L 1 0 L 1.609375 0 L 1.609375 -6.34375 L 1.625 -6.34375 L 4.0625 -1.859375 C 4.421875 -1.25 4.71875 -0.609375 5.078125 -0.015625 C 5.359375 0.046875 5.734375 -0.015625 6.046875 0 L 6.046875 -6.921875 L 5.4375 -6.921875 L 5.4375 -0.578125 L 2.96875 -5.078125 C 2.625 -5.671875 2.328125 -6.3125 1.96875 -6.890625 C 1.6875 -6.953125 1.3125 -6.890625 1 -6.921875 Z M 1 -6.921875 "
               style="stroke:none;" />
          </symbol>
          <symbol
             id="textext-089c97ff-4"
             overflow="visible">
            <path
               id="path8862"
               d="M 4.25 -1.09375 C 4.078125 -0.96875 3.9375 -0.828125 3.75 -0.71875 C 3.125 -0.375 2.359375 -0.28125 1.8125 -0.6875 C 1.3125 -1.046875 1.03125 -1.671875 1.03125 -2.5 L 4.328125 -2.5 C 4.328125 -3.234375 4.15625 -3.921875 3.734375 -4.34375 C 3.3125 -4.75 2.65625 -4.921875 2.109375 -4.78125 C 1.796875 -4.71875 1.53125 -4.578125 1.296875 -4.390625 C 0.671875 -3.875 0.421875 -3.046875 0.421875 -2.265625 C 0.453125 -1.25 1.140625 -0.203125 2.171875 0.03125 C 2.734375 0.15625 3.359375 0.046875 3.859375 -0.25 C 3.953125 -0.296875 4.234375 -0.46875 4.28125 -0.5625 C 4.3125 -0.609375 4.25 -1.09375 4.25 -1.09375 Z M 3.796875 -2.875 L 1.078125 -2.875 C 1.09375 -3.03125 1.140625 -3.1875 1.203125 -3.3125 C 1.421875 -3.84375 1.890625 -4.390625 2.609375 -4.3125 C 3.28125 -4.25 3.609375 -3.78125 3.75 -3.1875 C 3.765625 -3.09375 3.78125 -2.984375 3.796875 -2.875 Z M 3.796875 -2.875 "
               style="stroke:none;" />
          </symbol>
          <symbol
             id="textext-089c97ff-5"
             overflow="visible">
            <path
               id="path8865"
               d=""
               style="stroke:none;" />
          </symbol>
          <symbol
             id="textext-089c97ff-6"
             overflow="visible">
            <path
               id="path8868"
               d="M 1.734375 -2.015625 C 1.640625 -2.09375 1.546875 -2.15625 1.4375 -2.21875 L 0.9375 -2.578125 C 0.84375 -2.640625 0.71875 -2.75 0.59375 -2.671875 C 0.46875 -2.59375 0.453125 -2.390625 0.578125 -2.3125 C 0.625 -2.28125 1.59375 -1.859375 1.640625 -1.84375 L 1.640625 -1.828125 C 1.5625 -1.8125 0.578125 -1.359375 0.578125 -1.359375 C 0.453125 -1.28125 0.46875 -1.078125 0.59375 -1 C 0.71875 -0.921875 0.84375 -1.03125 0.9375 -1.09375 L 1.4375 -1.453125 C 1.546875 -1.515625 1.640625 -1.578125 1.734375 -1.65625 C 1.71875 -1.40625 1.6875 -1.15625 1.671875 -0.90625 C 1.65625 -0.78125 1.625 -0.640625 1.640625 -0.515625 C 1.640625 -0.359375 1.84375 -0.28125 1.96875 -0.375 C 2.078125 -0.4375 2.0625 -0.5625 2.046875 -0.6875 C 2.015625 -1.015625 1.96875 -1.328125 1.953125 -1.65625 C 2.046875 -1.578125 2.15625 -1.515625 2.25 -1.453125 L 2.75 -1.09375 C 2.859375 -1.03125 2.96875 -0.921875 3.09375 -1 C 3.21875 -1.078125 3.25 -1.28125 3.125 -1.359375 C 3.0625 -1.390625 2.09375 -1.8125 2.0625 -1.828125 L 2.0625 -1.84375 C 2.125 -1.859375 3.109375 -2.3125 3.125 -2.3125 C 3.25 -2.390625 3.21875 -2.59375 3.09375 -2.671875 C 2.96875 -2.75 2.859375 -2.640625 2.75 -2.578125 L 2.25 -2.21875 C 2.15625 -2.15625 2.046875 -2.09375 1.953125 -2.015625 C 1.96875 -2.34375 2.015625 -2.65625 2.046875 -2.984375 C 2.0625 -3.109375 2.078125 -3.234375 1.96875 -3.296875 C 1.84375 -3.390625 1.640625 -3.328125 1.640625 -3.15625 C 1.625 -3.03125 1.65625 -2.90625 1.671875 -2.78125 C 1.6875 -2.515625 1.71875 -2.265625 1.734375 -2.015625 Z M 1.734375 -2.015625 "
               style="stroke:none;" />
          </symbol>
        </g>
      </defs>
      <g
         id="textext-089c97ff-7">
        <g
           id="g8871"
           style="fill:rgb(0%,0%,0%);fill-opacity:1;">
          <use
             id="use8873"
             y="131.149"
             x="223.432"
             xlink:href="#textext-089c97ff-1" />
          <use
             id="use8875"
             y="131.149"
             x="227.311525"
             xlink:href="#textext-089c97ff-1" />
        </g>
        <g
           id="g8877"
           style="fill:rgb(0%,0%,0%);fill-opacity:1;">
          <use
             id="use8879"
             y="134.765"
             x="231.689"
             xlink:href="#textext-089c97ff-3" />
          <use
             id="use8881"
             y="134.765"
             x="238.74551"
             xlink:href="#textext-089c97ff-4" />
        </g>
        <g
           id="g8883"
           style="fill:rgb(0%,0%,0%);fill-opacity:1;">
          <use
             id="use8885"
             y="130.607"
             x="243.395"
             xlink:href="#textext-089c97ff-6" />
        </g>
      </g>
    </g>
    <g
       ns0:text="1.83 MeV"
       ns0:preamble="/home/vsilv/fp/inkscapestyle.tex"
       transform="matrix(2,0,0,2,-142.20848,23.75407)"
       style="fill:#ff0000;stroke:#ff0000"
       id="g9212">
      <defs
         id="defs9214">
        <g
           id="g9216">
          <symbol
             overflow="visible"
             id="textext-b95cf74c-0">
            <path
               style="stroke:none;"
               d=""
               id="path9219" />
          </symbol>
          <symbol
             overflow="visible"
             id="textext-b95cf74c-1">
            <path
               style="stroke:none;"
               d="M 1.046875 -6.0625 L 1.046875 -5.5625 C 1.53125 -5.5625 1.953125 -5.65625 2.40625 -5.859375 L 2.40625 -0.515625 L 1.109375 -0.515625 L 1.109375 -0.015625 L 4.359375 -0.015625 L 4.359375 -0.515625 L 3.0625 -0.515625 L 3.0625 -6.71875 L 2.984375 -6.71875 C 2.84375 -6.71875 2.765625 -6.59375 2.671875 -6.515625 C 2.203125 -6.1875 1.609375 -6.0625 1.046875 -6.0625 Z M 1.046875 -6.0625 "
               id="path9222" />
          </symbol>
          <symbol
             overflow="visible"
             id="textext-b95cf74c-2">
            <path
               style="stroke:none;"
               d="M 1.0625 -0.78125 L 1.0625 -0.015625 L 1.84375 -0.015625 L 1.84375 -0.78125 Z M 1.0625 -0.78125 "
               id="path9225" />
          </symbol>
          <symbol
             overflow="visible"
             id="textext-b95cf74c-3">
            <path
               style="stroke:none;"
               d="M 1.9375 -3.53125 C 1.21875 -3.3125 0.4375 -2.796875 0.4375 -1.796875 C 0.4375 -0.6875 1.46875 0.140625 2.515625 0.15625 L 2.5625 0.15625 C 3.6875 0.15625 4.78125 -0.625 4.78125 -1.828125 C 4.78125 -2.6875 4.109375 -3.296875 3.28125 -3.53125 C 3.890625 -3.765625 4.640625 -4.109375 4.640625 -5 C 4.640625 -6.03125 3.65625 -6.6875 2.71875 -6.71875 L 2.65625 -6.71875 C 1.671875 -6.71875 0.578125 -6.078125 0.578125 -5.03125 C 0.578125 -4.421875 1.03125 -3.90625 1.5625 -3.671875 C 1.6875 -3.625 1.8125 -3.59375 1.9375 -3.53125 Z M 1.09375 -1.6875 C 1.09375 -1.75 1.09375 -1.78125 1.09375 -1.828125 C 1.09375 -2.71875 1.75 -3.296875 2.609375 -3.296875 C 3.34375 -3.296875 4.140625 -2.84375 4.140625 -1.796875 C 4.140625 -1.015625 3.59375 -0.359375 2.609375 -0.359375 C 1.828125 -0.359375 1.1875 -0.796875 1.09375 -1.6875 Z M 1.171875 -4.890625 L 1.171875 -5 C 1.171875 -5.890625 1.90625 -6.21875 2.59375 -6.21875 C 3.28125 -6.21875 3.953125 -5.9375 4.046875 -5.109375 L 4.046875 -5.015625 C 4.046875 -4.09375 3.265625 -3.796875 2.609375 -3.796875 L 2.46875 -3.796875 C 1.796875 -3.84375 1.265625 -4.203125 1.171875 -4.890625 Z M 1.171875 -4.890625 "
               id="path9228" />
          </symbol>
          <symbol
             overflow="visible"
             id="textext-b95cf74c-4">
            <path
               style="stroke:none;"
               d="M 0.890625 -5.078125 C 0.96875 -5.203125 1.03125 -5.328125 1.109375 -5.453125 C 1.484375 -5.9375 2.046875 -6.234375 2.6875 -6.234375 C 3.234375 -6.234375 3.84375 -5.9375 3.84375 -5.265625 C 3.84375 -4.671875 3.4375 -4.140625 2.90625 -3.953125 C 2.546875 -3.8125 2.125 -3.8125 1.75 -3.78125 L 1.75 -3.296875 L 2.40625 -3.296875 C 3.25 -3.296875 4.09375 -2.9375 4.09375 -1.828125 C 4.09375 -0.953125 3.453125 -0.359375 2.625 -0.359375 C 1.75 -0.359375 0.984375 -0.859375 0.53125 -1.46875 C 0.484375 -1.34375 0.453125 -1.078125 0.453125 -1 L 0.453125 -0.96875 C 0.59375 -0.578125 1.34375 -0.09375 1.875 0.046875 C 2.125 0.125 2.375 0.15625 2.625 0.15625 C 3.65625 0.15625 4.78125 -0.578125 4.78125 -1.8125 C 4.78125 -2.65625 4.03125 -3.421875 3.265625 -3.53125 C 3.875 -3.890625 4.5 -4.328125 4.5 -5.265625 C 4.5 -6.203125 3.484375 -6.71875 2.65625 -6.71875 C 1.828125 -6.71875 1.109375 -6.296875 0.640625 -5.625 C 0.625 -5.609375 0.59375 -5.578125 0.59375 -5.53125 C 0.59375 -5.4375 0.78125 -5.21875 0.890625 -5.078125 Z M 0.890625 -5.078125 "
               id="path9231" />
          </symbol>
          <symbol
             overflow="visible"
             id="textext-b95cf74c-5">
            <path
               style="stroke:none;"
               d="M 1.015625 -6.921875 L 1.015625 -0.015625 L 1.640625 -0.015625 L 1.640625 -6.296875 C 1.6875 -6.09375 1.78125 -5.90625 1.859375 -5.71875 C 2.5 -3.96875 3.234375 -2.25 3.953125 -0.53125 L 4.03125 -0.296875 C 4.078125 -0.234375 4.0625 -0.171875 4.1875 -0.171875 L 4.65625 -0.171875 C 4.75 -0.1875 5.078125 -1.140625 5.28125 -1.625 C 5.828125 -2.953125 6.359375 -4.25 6.890625 -5.578125 C 6.984375 -5.8125 7.09375 -6.046875 7.140625 -6.296875 L 7.15625 -0.015625 L 7.78125 -0.015625 L 7.78125 -6.921875 L 6.953125 -6.921875 L 6.859375 -6.90625 L 4.96875 -2.296875 L 4.390625 -0.8125 L 1.921875 -6.90625 L 1.828125 -6.921875 Z M 1.015625 -6.921875 "
               id="path9234" />
          </symbol>
          <symbol
             overflow="visible"
             id="textext-b95cf74c-6">
            <path
               style="stroke:none;"
               d="M 4.25 -1.109375 C 3.765625 -0.734375 3.3125 -0.421875 2.671875 -0.421875 C 1.625 -0.421875 1.03125 -1.40625 1.03125 -2.5 L 4.328125 -2.5 C 4.328125 -3.15625 4.21875 -3.875 3.734375 -4.359375 C 3.40625 -4.671875 2.9375 -4.828125 2.5 -4.828125 C 1.109375 -4.828125 0.421875 -3.484375 0.421875 -2.328125 L 0.421875 -2.28125 C 0.453125 -1.09375 1.34375 0.0625 2.640625 0.0625 C 3.203125 0.0625 3.71875 -0.140625 4.171875 -0.453125 C 4.234375 -0.515625 4.296875 -0.5625 4.296875 -0.640625 C 4.296875 -0.671875 4.28125 -0.703125 4.28125 -0.734375 C 4.265625 -0.859375 4.25 -0.984375 4.25 -1.109375 Z M 1.078125 -2.890625 C 1.171875 -3.578125 1.734375 -4.34375 2.484375 -4.34375 C 3.109375 -4.34375 3.578125 -3.875 3.71875 -3.296875 C 3.765625 -3.15625 3.765625 -3.015625 3.796875 -2.890625 Z M 1.078125 -2.890625 "
               id="path9237" />
          </symbol>
          <symbol
             overflow="visible"
             id="textext-b95cf74c-7">
            <path
               style="stroke:none;"
               d="M 0.15625 -6.921875 C 0.203125 -6.703125 0.3125 -6.5 0.40625 -6.296875 C 1.0625 -4.71875 1.671875 -3.15625 2.296875 -1.609375 L 2.8125 -0.34375 C 2.859375 -0.21875 2.9375 0.046875 3.015625 0.046875 L 3.546875 0.046875 C 3.5625 0.046875 3.609375 0.0625 3.65625 0.0625 C 3.796875 0.0625 3.859375 -0.234375 3.921875 -0.375 C 4.734375 -2.328125 5.5 -4.34375 6.3125 -6.296875 C 6.40625 -6.5 6.515625 -6.703125 6.5625 -6.921875 L 5.9375 -6.921875 L 5.765625 -6.546875 L 3.40625 -0.640625 L 3.390625 -0.640625 C 3.375 -0.828125 3.265625 -1 3.203125 -1.171875 C 2.484375 -3.015625 1.6875 -4.859375 0.984375 -6.703125 C 0.921875 -6.796875 0.921875 -6.921875 0.78125 -6.921875 Z M 0.15625 -6.921875 "
               id="path9240" />
          </symbol>
        </g>
      </defs>
      <g
         style="fill:#ff0000"
         id="textext-b95cf74c-8">
        <g
           style="fill:#ff0000;fill-opacity:1"
           id="g9243">
          <use
             style="fill:#ff0000"
             xlink:href="#textext-b95cf74c-1"
             x="223.432"
             y="134.765"
             id="use9245" />
          <use
             style="fill:#ff0000"
             xlink:href="#textext-b95cf74c-2"
             x="228.662365"
             y="134.765"
             id="use9247" />
          <use
             style="fill:#ff0000"
             xlink:href="#textext-b95cf74c-3"
             x="231.568455"
             y="134.765"
             id="use9249" />
          <use
             style="fill:#ff0000"
             xlink:href="#textext-b95cf74c-4"
             x="236.79882"
             y="134.765"
             id="use9251" />
        </g>
        <g
           style="fill:#ff0000;fill-opacity:1"
           id="g9253">
          <use
             style="fill:#ff0000"
             xlink:href="#textext-b95cf74c-5"
             x="245.336769"
             y="134.765"
             id="use9255" />
          <use
             style="fill:#ff0000"
             xlink:href="#textext-b95cf74c-6"
             x="254.136733"
             y="134.765"
             id="use9257" />
        </g>
        <g
           style="fill:#ff0000;fill-opacity:1"
           id="g9259">
          <use
             style="fill:#ff0000"
             xlink:href="#textext-b95cf74c-7"
             x="257.919532"
             y="134.765"
             id="use9261" />
        </g>
      </g>
    </g>
    <g
       id="g9584"
       style="fill:#ff0000"
       transform="matrix(2,0,0,2,-49.491927,-57.02329)"
       ns0:preamble="/home/vsilv/fp/inkscapestyle.tex"
       ns0:text="0.54 MeV">
      <defs
         id="defs9586">
        <g
           id="g9588">
          <symbol
             id="textext-8cac197e-0"
             overflow="visible">
            <path
               id="path9591"
               d=""
               style="stroke:none;" />
          </symbol>
          <symbol
             id="textext-8cac197e-1"
             overflow="visible">
            <path
               id="path9594"
               d="M 2.46875 -6.71875 C 0.5625 -6.546875 0.515625 -4.25 0.515625 -3.203125 C 0.515625 -2.25 0.625 -1.109375 1.25 -0.421875 C 1.59375 -0.0625 2.09375 0.171875 2.59375 0.171875 C 4.625 0.171875 4.703125 -2.328125 4.703125 -3.34375 C 4.703125 -4.28125 4.609375 -5.390625 4 -6.078125 C 3.671875 -6.484375 3.15625 -6.734375 2.625 -6.734375 C 2.578125 -6.734375 2.515625 -6.71875 2.46875 -6.71875 Z M 1.15625 -2.8125 C 1.140625 -2.890625 1.140625 -2.984375 1.140625 -3.0625 L 1.140625 -3.34375 C 1.140625 -4.5625 1.203125 -6.21875 2.625 -6.21875 C 4.046875 -6.21875 4.0625 -4.453125 4.0625 -3.46875 L 4.0625 -3.296875 C 4.0625 -2.15625 4.046875 -0.34375 2.609375 -0.34375 C 1.65625 -0.34375 1.28125 -1.265625 1.171875 -2.40625 C 1.171875 -2.546875 1.171875 -2.6875 1.15625 -2.8125 Z M 1.15625 -2.8125 "
               style="stroke:none;" />
          </symbol>
          <symbol
             id="textext-8cac197e-2"
             overflow="visible">
            <path
               id="path9597"
               d="M 1.0625 -0.78125 L 1.0625 -0.015625 L 1.84375 -0.015625 L 1.84375 -0.78125 Z M 1.0625 -0.78125 "
               style="stroke:none;" />
          </symbol>
          <symbol
             id="textext-8cac197e-3"
             overflow="visible">
            <path
               id="path9600"
               d="M 0.921875 -6.546875 L 0.921875 -2.984375 L 1.375 -2.984375 C 1.53125 -2.984375 1.65625 -3.265625 1.78125 -3.375 C 2.046875 -3.609375 2.390625 -3.71875 2.734375 -3.71875 C 3.734375 -3.71875 4 -2.796875 4 -2.046875 C 4 -1.609375 3.90625 -1.140625 3.609375 -0.8125 C 3.3125 -0.5 2.90625 -0.359375 2.484375 -0.359375 C 1.78125 -0.359375 1.140625 -0.71875 0.765625 -1.28125 L 0.75 -1.28125 C 0.671875 -1.140625 0.5 -0.921875 0.5 -0.828125 C 0.5 -0.59375 1.28125 -0.078125 1.75 0.0625 C 2 0.125 2.25 0.15625 2.5 0.15625 L 2.578125 0.15625 C 3.765625 0.09375 4.703125 -0.875 4.703125 -2.0625 C 4.703125 -3.109375 3.953125 -4.21875 2.78125 -4.21875 C 2.328125 -4.21875 1.875 -4.046875 1.53125 -3.734375 L 1.53125 -6.015625 L 4.359375 -6.015625 L 4.359375 -6.546875 Z M 0.921875 -6.546875 "
               style="stroke:none;" />
          </symbol>
          <symbol
             id="textext-8cac197e-4"
             overflow="visible">
            <path
               id="path9603"
               d="M 0.296875 -1.8125 L 3.171875 -1.8125 L 3.171875 -0.015625 L 3.796875 -0.015625 L 3.796875 -1.8125 L 4.9375 -1.8125 L 4.9375 -2.34375 L 3.796875 -2.34375 L 3.796875 -6.640625 L 3.15625 -6.640625 C 3.015625 -6.640625 3 -6.5625 2.953125 -6.5 L 2.796875 -6.265625 C 2.625 -6 2.46875 -5.734375 2.28125 -5.46875 L 0.96875 -3.40625 C 0.75 -3.078125 0.296875 -2.5 0.296875 -2.25 Z M 0.9375 -2.34375 C 1.625 -3.40625 2.328125 -4.484375 2.953125 -5.59375 C 3.046875 -5.734375 3.15625 -5.90625 3.1875 -6.078125 L 3.203125 -2.34375 Z M 0.9375 -2.34375 "
               style="stroke:none;" />
          </symbol>
          <symbol
             id="textext-8cac197e-5"
             overflow="visible">
            <path
               id="path9606"
               d="M 1.015625 -6.921875 L 1.015625 -0.015625 L 1.640625 -0.015625 L 1.640625 -6.296875 C 1.6875 -6.09375 1.78125 -5.90625 1.859375 -5.71875 C 2.5 -3.96875 3.234375 -2.25 3.953125 -0.53125 L 4.03125 -0.296875 C 4.078125 -0.234375 4.0625 -0.171875 4.1875 -0.171875 L 4.65625 -0.171875 C 4.75 -0.1875 5.078125 -1.140625 5.28125 -1.625 C 5.828125 -2.953125 6.359375 -4.25 6.890625 -5.578125 C 6.984375 -5.8125 7.09375 -6.046875 7.140625 -6.296875 L 7.15625 -0.015625 L 7.78125 -0.015625 L 7.78125 -6.921875 L 6.953125 -6.921875 L 6.859375 -6.90625 L 4.96875 -2.296875 L 4.390625 -0.8125 L 1.921875 -6.90625 L 1.828125 -6.921875 Z M 1.015625 -6.921875 "
               style="stroke:none;" />
          </symbol>
          <symbol
             id="textext-8cac197e-6"
             overflow="visible">
            <path
               id="path9609"
               d="M 4.25 -1.109375 C 3.765625 -0.734375 3.3125 -0.421875 2.671875 -0.421875 C 1.625 -0.421875 1.03125 -1.40625 1.03125 -2.5 L 4.328125 -2.5 C 4.328125 -3.15625 4.21875 -3.875 3.734375 -4.359375 C 3.40625 -4.671875 2.9375 -4.828125 2.5 -4.828125 C 1.109375 -4.828125 0.421875 -3.484375 0.421875 -2.328125 L 0.421875 -2.28125 C 0.453125 -1.09375 1.34375 0.0625 2.640625 0.0625 C 3.203125 0.0625 3.71875 -0.140625 4.171875 -0.453125 C 4.234375 -0.515625 4.296875 -0.5625 4.296875 -0.640625 C 4.296875 -0.671875 4.28125 -0.703125 4.28125 -0.734375 C 4.265625 -0.859375 4.25 -0.984375 4.25 -1.109375 Z M 1.078125 -2.890625 C 1.171875 -3.578125 1.734375 -4.34375 2.484375 -4.34375 C 3.109375 -4.34375 3.578125 -3.875 3.71875 -3.296875 C 3.765625 -3.15625 3.765625 -3.015625 3.796875 -2.890625 Z M 1.078125 -2.890625 "
               style="stroke:none;" />
          </symbol>
          <symbol
             id="textext-8cac197e-7"
             overflow="visible">
            <path
               id="path9612"
               d="M 0.15625 -6.921875 C 0.203125 -6.703125 0.3125 -6.5 0.40625 -6.296875 C 1.0625 -4.71875 1.671875 -3.15625 2.296875 -1.609375 L 2.8125 -0.34375 C 2.859375 -0.21875 2.9375 0.046875 3.015625 0.046875 L 3.546875 0.046875 C 3.5625 0.046875 3.609375 0.0625 3.65625 0.0625 C 3.796875 0.0625 3.859375 -0.234375 3.921875 -0.375 C 4.734375 -2.328125 5.5 -4.34375 6.3125 -6.296875 C 6.40625 -6.5 6.515625 -6.703125 6.5625 -6.921875 L 5.9375 -6.921875 L 5.765625 -6.546875 L 3.40625 -0.640625 L 3.390625 -0.640625 C 3.375 -0.828125 3.265625 -1 3.203125 -1.171875 C 2.484375 -3.015625 1.6875 -4.859375 0.984375 -6.703125 C 0.921875 -6.796875 0.921875 -6.921875 0.78125 -6.921875 Z M 0.15625 -6.921875 "
               style="stroke:none;" />
          </symbol>
        </g>
      </defs>
      <g
         style="fill:#ff0000"
         id="textext-8cac197e-8">
        <g
           id="g9615"
           style="fill:#ff0000;fill-opacity:1">
          <use
             style="fill:#ff0000"
             id="use9617"
             y="134.765"
             x="223.432"
             xlink:href="#textext-8cac197e-1" />
          <use
             style="fill:#ff0000"
             id="use9619"
             y="134.765"
             x="228.662365"
             xlink:href="#textext-8cac197e-2" />
          <use
             style="fill:#ff0000"
             id="use9621"
             y="134.765"
             x="231.568455"
             xlink:href="#textext-8cac197e-3" />
          <use
             style="fill:#ff0000"
             id="use9623"
             y="134.765"
             x="236.79882"
             xlink:href="#textext-8cac197e-4" />
        </g>
        <g
           id="g9625"
           style="fill:#ff0000;fill-opacity:1">
          <use
             style="fill:#ff0000"
             id="use9627"
             y="134.765"
             x="245.336769"
             xlink:href="#textext-8cac197e-5" />
          <use
             style="fill:#ff0000"
             id="use9629"
             y="134.765"
             x="254.136733"
             xlink:href="#textext-8cac197e-6" />
        </g>
        <g
           id="g9631"
           style="fill:#ff0000;fill-opacity:1">
          <use
             style="fill:#ff0000"
             id="use9633"
             y="134.765"
             x="257.919532"
             xlink:href="#textext-8cac197e-7" />
        </g>
      </g>
    </g>
    <g
       ns0:text="$^{22}\\mathrm{Na}$ ($T_{1/2} = 2.6$a)"
       ns0:preamble="/home/vsilv/fp/inkscapestyle.tex"
       transform="matrix(2,0,0,2,-94.124277,-95.24808)"
       id="g10792">
      <defs
         id="defs10794">
        <g
           id="g10796">
          <symbol
             overflow="visible"
             id="textext-7e071815-0">
            <path
               style="stroke:none;"
               d=""
               id="path10799" />
          </symbol>
          <symbol
             overflow="visible"
             id="textext-7e071815-1">
            <path
               style="stroke:none;"
               d="M 0.625 -3.203125 C 0.734375 -3.609375 0.90625 -4.046875 1.34375 -4.203125 C 1.5 -4.265625 1.671875 -4.28125 1.859375 -4.265625 C 2.21875 -4.234375 2.578125 -4.09375 2.796875 -3.78125 C 2.9375 -3.578125 2.984375 -3.328125 2.953125 -3.078125 C 2.875 -2.40625 2.28125 -1.984375 1.796875 -1.609375 C 1.40625 -1.3125 0.59375 -0.59375 0.59375 -0.59375 L 0.453125 -0.484375 C 0.390625 -0.40625 0.390625 -0.421875 0.390625 -0.265625 L 0.390625 0 L 3.484375 0 L 3.484375 -0.4375 L 0.84375 -0.4375 C 1.109375 -0.671875 1.90625 -1.34375 2.140625 -1.515625 C 2.578125 -1.84375 3.0625 -2.15625 3.34375 -2.640625 C 3.640625 -3.203125 3.453125 -3.921875 2.96875 -4.3125 C 2.4375 -4.765625 1.46875 -4.828125 0.875 -4.390625 C 0.65625 -4.234375 0.5 -3.984375 0.390625 -3.734375 C 0.375 -3.671875 0.328125 -3.609375 0.328125 -3.546875 C 0.34375 -3.515625 0.390625 -3.484375 0.40625 -3.4375 C 0.46875 -3.359375 0.546875 -3.265625 0.625 -3.203125 Z M 0.625 -3.203125 "
               id="path10802" />
          </symbol>
          <symbol
             overflow="visible"
             id="textext-7e071815-2">
            <path
               style="stroke:none;"
               d="M 0.78125 -4.21875 L 0.78125 -3.828125 C 1.125 -3.828125 1.46875 -3.890625 1.78125 -4.03125 L 1.78125 -0.390625 L 0.8125 -0.390625 L 0.8125 0 L 3.25 0 L 3.25 -0.390625 L 2.28125 -0.390625 L 2.28125 -4.6875 C 2.25 -4.6875 2.1875 -4.6875 2.15625 -4.671875 C 2.109375 -4.65625 2.0625 -4.59375 2.015625 -4.5625 C 1.734375 -4.328125 1.21875 -4.21875 0.78125 -4.21875 Z M 0.78125 -4.21875 "
               id="path10805" />
          </symbol>
          <symbol
             overflow="visible"
             id="textext-7e071815-3">
            <path
               style="stroke:none;"
               d=""
               id="path10808" />
          </symbol>
          <symbol
             overflow="visible"
             id="textext-7e071815-4">
            <path
               style="stroke:none;"
               d="M 1 -6.921875 L 1 0 L 1.609375 0 L 1.609375 -6.34375 L 1.625 -6.34375 L 4.0625 -1.859375 C 4.421875 -1.25 4.71875 -0.609375 5.078125 -0.015625 C 5.359375 0.046875 5.734375 -0.015625 6.046875 0 L 6.046875 -6.921875 L 5.4375 -6.921875 L 5.4375 -0.578125 L 2.96875 -5.078125 C 2.625 -5.671875 2.328125 -6.3125 1.96875 -6.890625 C 1.6875 -6.953125 1.3125 -6.890625 1 -6.921875 Z M 1 -6.921875 "
               id="path10811" />
          </symbol>
          <symbol
             overflow="visible"
             id="textext-7e071815-5">
            <path
               style="stroke:none;"
               d="M 0.875 -3.84375 C 0.9375 -3.875 1 -3.921875 1.0625 -3.96875 C 1.421875 -4.171875 1.84375 -4.359375 2.359375 -4.359375 C 2.46875 -4.359375 2.578125 -4.359375 2.6875 -4.34375 C 2.90625 -4.28125 3.109375 -4.125 3.234375 -3.9375 C 3.390625 -3.671875 3.453125 -3.5 3.453125 -3.09375 L 3.453125 -2.640625 C 2.40625 -2.640625 1.28125 -2.421875 0.78125 -1.796875 C 0.375 -1.296875 0.53125 -0.46875 1.046875 -0.09375 C 1.3125 0.09375 1.609375 0.09375 1.921875 0.0625 C 2.375 0.015625 2.828125 -0.125 3.1875 -0.40625 C 3.296875 -0.484375 3.375 -0.59375 3.453125 -0.6875 L 3.453125 0 L 4.09375 0 L 4.09375 -2.625 C 4.09375 -2.90625 4.109375 -3.1875 4.078125 -3.453125 C 4.015625 -3.890625 3.765625 -4.28125 3.421875 -4.53125 C 2.921875 -4.90625 2.203125 -4.890625 1.53125 -4.703125 C 1.390625 -4.671875 0.890625 -4.5 0.84375 -4.390625 C 0.8125 -4.359375 0.828125 -4.28125 0.828125 -4.234375 C 0.84375 -4.109375 0.859375 -3.984375 0.875 -3.84375 Z M 3.453125 -2.34375 L 3.453125 -1.59375 C 3.453125 -1.359375 3.453125 -1.140625 3.3125 -0.921875 C 3.234375 -0.796875 3.125 -0.703125 2.984375 -0.625 C 2.4375 -0.296875 1.53125 -0.34375 1.25 -0.84375 C 1.03125 -1.203125 1.234375 -1.625 1.53125 -1.859375 C 1.9375 -2.1875 2.828125 -2.34375 3.453125 -2.34375 Z M 3.453125 -2.34375 "
               id="path10814" />
          </symbol>
          <symbol
             overflow="visible"
             id="textext-7e071815-6">
            <path
               style="stroke:none;"
               d="M 0.703125 -3.78125 C 0.515625 -3.734375 0.515625 -3.453125 0.734375 -3.40625 C 0.78125 -3.390625 0.859375 -3.40625 0.921875 -3.40625 L 6.90625 -3.40625 C 6.984375 -3.40625 7.0625 -3.40625 7.125 -3.453125 C 7.25 -3.5625 7.171875 -3.78125 7.015625 -3.796875 C 6.875 -3.8125 6.734375 -3.796875 6.59375 -3.796875 L 0.875 -3.796875 C 0.828125 -3.796875 0.75 -3.8125 0.703125 -3.78125 Z M 0.59375 -1.765625 C 0.515625 -1.65625 0.59375 -1.5 0.703125 -1.46875 C 0.765625 -1.453125 0.828125 -1.46875 0.890625 -1.46875 L 6.921875 -1.46875 C 7 -1.46875 7.0625 -1.46875 7.125 -1.53125 C 7.25 -1.640625 7.171875 -1.84375 7 -1.859375 C 6.859375 -1.875 6.71875 -1.859375 6.578125 -1.859375 L 0.890625 -1.859375 C 0.75 -1.859375 0.65625 -1.875 0.59375 -1.765625 Z M 0.59375 -1.765625 "
               id="path10817" />
          </symbol>
          <symbol
             overflow="visible"
             id="textext-7e071815-7">
            <path
               style="stroke:none;"
               d="M 0.8125 -4.578125 C 0.9375 -5.15625 1.203125 -5.828125 1.78125 -6.078125 C 2.015625 -6.171875 2.265625 -6.1875 2.5 -6.171875 C 2.984375 -6.125 3.484375 -5.921875 3.78125 -5.515625 C 3.984375 -5.21875 4.0625 -4.828125 4.03125 -4.46875 C 3.90625 -3.390625 2.84375 -2.625 2.15625 -2.046875 L 0.78125 -0.78125 L 0.625 -0.625 C 0.53125 -0.53125 0.515625 -0.53125 0.515625 -0.34375 L 0.515625 0 L 4.703125 0 L 4.703125 -0.5625 L 1.09375 -0.5625 C 1.421875 -0.875 2.734375 -2.03125 2.921875 -2.171875 C 3.5 -2.640625 4.15625 -3.125 4.5 -3.8125 C 4.90625 -4.609375 4.6875 -5.609375 4.015625 -6.1875 C 3.234375 -6.859375 1.859375 -6.921875 1.09375 -6.203125 C 0.84375 -5.9375 0.640625 -5.609375 0.515625 -5.25 C 0.484375 -5.1875 0.4375 -5.109375 0.453125 -5.03125 C 0.453125 -4.96875 0.515625 -4.921875 0.546875 -4.890625 C 0.625 -4.78125 0.703125 -4.671875 0.8125 -4.578125 Z M 0.8125 -4.578125 "
               id="path10820" />
          </symbol>
          <symbol
             overflow="visible"
             id="textext-7e071815-8">
            <path
               style="stroke:none;"
               d="M 1.203125 -3.296875 C 1.203125 -4.21875 1.359375 -5.3125 2.1875 -5.875 C 2.65625 -6.1875 3.21875 -6.3125 4 -6.109375 C 4.109375 -6.078125 4.234375 -6.03125 4.34375 -6 L 4.34375 -6.34375 C 4.34375 -6.390625 4.359375 -6.453125 4.328125 -6.5 C 4.25 -6.59375 3.6875 -6.671875 3.671875 -6.671875 C 2.75 -6.78125 2.203125 -6.5625 1.65625 -6.078125 C 1 -5.5 0.640625 -4.609375 0.5625 -3.75 C 0.53125 -3.453125 0.53125 -3.15625 0.546875 -2.875 C 0.609375 -1.578125 0.921875 -0.484375 1.859375 0 C 2.328125 0.21875 2.921875 0.234375 3.40625 0.015625 C 3.890625 -0.203125 4.34375 -0.734375 4.53125 -1.234375 C 4.78125 -1.875 4.71875 -2.765625 4.484375 -3.328125 C 4.3125 -3.75 3.96875 -4.234375 3.578125 -4.390625 C 3.390625 -4.46875 3.1875 -4.5 2.984375 -4.5 C 2.4375 -4.484375 1.90625 -4.234375 1.546875 -3.8125 C 1.40625 -3.671875 1.28125 -3.484375 1.203125 -3.296875 Z M 3.34375 -3.859375 C 3.515625 -3.765625 3.703125 -3.578125 3.78125 -3.421875 C 4.03125 -3.046875 4.03125 -2.609375 4.03125 -2.15625 C 4.03125 -1.9375 4.03125 -1.71875 3.984375 -1.5 C 3.921875 -1.171875 3.765625 -0.84375 3.5 -0.625 C 3.28125 -0.453125 3.125 -0.40625 2.75 -0.34375 C 2.28125 -0.3125 1.84375 -0.515625 1.578125 -0.90625 C 1.359375 -1.25 1.21875 -1.859375 1.21875 -2.34375 C 1.21875 -2.984375 1.5625 -3.609375 2.09375 -3.875 C 2.4375 -4.03125 3 -4.0625 3.34375 -3.859375 Z M 3.34375 -3.859375 "
               id="path10823" />
          </symbol>
          <symbol
             overflow="visible"
             id="textext-7e071815-9">
            <path
               style="stroke:none;"
               d=""
               id="path10826" />
          </symbol>
          <symbol
             overflow="visible"
             id="textext-7e071815-10">
            <path
               style="stroke:none;"
               d="M 3.484375 2.203125 C 3.328125 2.03125 3.140625 1.890625 2.984375 1.71875 C 1.9375 0.5625 1.546875 -1.09375 1.546875 -2.609375 C 1.546875 -4.171875 1.90625 -5.765625 2.984375 -7.015625 C 3.140625 -7.171875 3.328125 -7.3125 3.484375 -7.484375 L 3.0625 -7.484375 C 2.890625 -7.484375 2.671875 -7.234375 2.515625 -7.078125 C 1.359375 -5.921875 0.90625 -4.234375 0.90625 -2.625 C 0.90625 -0.9375 1.4375 0.96875 2.828125 2.078125 C 2.890625 2.140625 2.953125 2.203125 3.0625 2.203125 Z M 3.484375 2.203125 "
               id="path10829" />
          </symbol>
          <symbol
             overflow="visible"
             id="textext-7e071815-11">
            <path
               style="stroke:none;"
               d="M 0.875 -3.859375 C 1.046875 -3.9375 1.203125 -4.0625 1.375 -4.140625 C 1.6875 -4.28125 2.03125 -4.359375 2.359375 -4.359375 L 2.5 -4.359375 C 2.953125 -4.359375 3.28125 -4 3.40625 -3.5625 C 3.453125 -3.421875 3.453125 -3.265625 3.453125 -3.09375 L 3.453125 -2.65625 C 2.40625 -2.65625 0.546875 -2.4375 0.546875 -1.109375 C 0.546875 -0.515625 0.984375 0.0625 1.65625 0.0625 C 2.296875 0.0625 3.03125 -0.15625 3.453125 -0.703125 L 3.453125 -0.015625 L 4.09375 -0.015625 L 4.09375 -2.640625 C 4.09375 -2.796875 4.09375 -2.953125 4.09375 -3.109375 C 4.09375 -3.859375 3.65625 -4.765625 2.59375 -4.828125 L 2.484375 -4.828125 C 1.953125 -4.828125 1.46875 -4.734375 1 -4.515625 C 0.9375 -4.46875 0.8125 -4.453125 0.8125 -4.34375 C 0.8125 -4.1875 0.859375 -4.015625 0.875 -3.859375 Z M 3.453125 -2.359375 L 3.453125 -1.609375 C 3.453125 -1.234375 3.40625 -0.890625 2.984375 -0.640625 C 2.765625 -0.5 2.5 -0.421875 2.21875 -0.421875 C 1.78125 -0.421875 1.15625 -0.625 1.15625 -1.171875 C 1.15625 -2.109375 2.640625 -2.359375 3.453125 -2.359375 Z M 3.453125 -2.359375 "
               id="path10832" />
          </symbol>
          <symbol
             overflow="visible"
             id="textext-7e071815-12">
            <path
               style="stroke:none;"
               d="M 0.578125 -7.484375 C 0.734375 -7.3125 0.921875 -7.171875 1.0625 -7.015625 C 2.140625 -5.796875 2.515625 -4.171875 2.515625 -2.609375 C 2.515625 -1.09375 2.109375 0.5625 1.0625 1.71875 C 0.921875 1.890625 0.734375 2.03125 0.578125 2.203125 L 0.984375 2.203125 C 1.171875 2.203125 1.390625 1.9375 1.53125 1.796875 C 2.6875 0.640625 3.15625 -1.0625 3.15625 -2.65625 C 3.15625 -4.34375 2.625 -6.25 1.234375 -7.359375 C 1.15625 -7.421875 1.09375 -7.484375 0.984375 -7.484375 Z M 0.578125 -7.484375 "
               id="path10835" />
          </symbol>
          <symbol
             overflow="visible"
             id="textext-7e071815-13">
            <path
               style="stroke:none;"
               d=""
               id="path10838" />
          </symbol>
          <symbol
             overflow="visible"
             id="textext-7e071815-14">
            <path
               style="stroke:none;"
               d="M 0.625 -6.359375 L 3.515625 -6.359375 L 2.15625 0 L 2.65625 0 C 2.703125 0 2.796875 0.015625 2.84375 -0.015625 C 2.875 -0.046875 2.875 -0.09375 2.875 -0.125 C 3.125 -1.328125 4.171875 -6.203125 4.171875 -6.203125 C 4.171875 -6.25 4.1875 -6.296875 4.203125 -6.328125 C 4.25 -6.375 4.359375 -6.359375 4.40625 -6.359375 L 7.09375 -6.359375 L 7.203125 -6.890625 L 2.234375 -6.890625 C 1.75 -6.875 1.1875 -6.921875 0.75 -6.875 C 0.6875 -6.71875 0.65625 -6.546875 0.625 -6.359375 Z M 0.625 -6.359375 "
               id="path10841" />
          </symbol>
          <symbol
             overflow="visible"
             id="textext-7e071815-15">
            <path
               style="stroke:none;"
               d="M 1.0625 -0.78125 L 1.0625 0 L 1.84375 0 L 1.84375 -0.78125 Z M 1.0625 -0.78125 "
               id="path10844" />
          </symbol>
          <symbol
             overflow="visible"
             id="textext-7e071815-16">
            <path
               style="stroke:none;"
               d=""
               id="path10847" />
          </symbol>
          <symbol
             overflow="visible"
             id="textext-7e071815-17">
            <path
               style="stroke:none;"
               d="M 3.09375 -5.21875 C 2.953125 -5.1875 2.921875 -5 2.875 -4.890625 L 0.90625 0.109375 L 0.453125 1.234375 C 0.4375 1.28125 0.40625 1.328125 0.40625 1.390625 C 0.40625 1.484375 0.5 1.546875 0.59375 1.546875 C 0.6875 1.53125 0.71875 1.46875 0.75 1.390625 C 0.78125 1.328125 3.21875 -4.84375 3.265625 -5 C 3.28125 -5.03125 3.296875 -5.078125 3.28125 -5.109375 C 3.25 -5.1875 3.15625 -5.234375 3.09375 -5.21875 Z M 3.09375 -5.21875 "
               id="path10850" />
          </symbol>
        </g>
      </defs>
      <g
         id="textext-7e071815-18">
        <g
           style="fill:rgb(0%,0%,0%);fill-opacity:1;"
           id="g10853">
          <use
             xlink:href="#textext-7e071815-1"
             x="223.432"
             y="131.149"
             id="use10855" />
          <use
             xlink:href="#textext-7e071815-1"
             x="227.311525"
             y="131.149"
             id="use10857" />
        </g>
        <g
           style="fill:rgb(0%,0%,0%);fill-opacity:1;"
           id="g10859">
          <use
             xlink:href="#textext-7e071815-4"
             x="231.689"
             y="134.765"
             id="use10861" />
          <use
             xlink:href="#textext-7e071815-5"
             x="238.74551"
             y="134.765"
             id="use10863" />
        </g>
        <g
           style="fill:rgb(0%,0%,0%);fill-opacity:1;"
           id="g10865">
          <use
             xlink:href="#textext-7e071815-10"
             x="246.956"
             y="134.765"
             id="use10867" />
        </g>
        <g
           style="fill:rgb(0%,0%,0%);fill-opacity:1;"
           id="g10869">
          <use
             xlink:href="#textext-7e071815-14"
             x="251.024"
             y="134.765"
             id="use10871" />
        </g>
        <g
           style="fill:rgb(0%,0%,0%);fill-opacity:1;"
           id="g10873">
          <use
             xlink:href="#textext-7e071815-2"
             x="257.017"
             y="136.564"
             id="use10875" />
        </g>
        <g
           style="fill:rgb(0%,0%,0%);fill-opacity:1;"
           id="g10877">
          <use
             xlink:href="#textext-7e071815-17"
             x="260.896"
             y="136.564"
             id="use10879" />
        </g>
        <g
           style="fill:rgb(0%,0%,0%);fill-opacity:1;"
           id="g10881">
          <use
             xlink:href="#textext-7e071815-1"
             x="264.601"
             y="136.564"
             id="use10883" />
        </g>
        <g
           style="fill:rgb(0%,0%,0%);fill-opacity:1;"
           id="g10885">
          <use
             xlink:href="#textext-7e071815-6"
             x="271.745"
             y="134.765"
             id="use10887" />
        </g>
        <g
           style="fill:rgb(0%,0%,0%);fill-opacity:1;"
           id="g10889">
          <use
             xlink:href="#textext-7e071815-7"
             x="282.263513"
             y="134.765"
             id="use10891" />
        </g>
        <g
           style="fill:rgb(0%,0%,0%);fill-opacity:1;"
           id="g10893">
          <use
             xlink:href="#textext-7e071815-15"
             x="287.492"
             y="134.765"
             id="use10895" />
        </g>
        <g
           style="fill:rgb(0%,0%,0%);fill-opacity:1;"
           id="g10897">
          <use
             xlink:href="#textext-7e071815-8"
             x="290.398"
             y="134.765"
             id="use10899" />
        </g>
        <g
           style="fill:rgb(0%,0%,0%);fill-opacity:1;"
           id="g10901">
          <use
             xlink:href="#textext-7e071815-11"
             x="295.628"
             y="134.765"
             id="use10903" />
          <use
             xlink:href="#textext-7e071815-12"
             x="300.52661"
             y="134.765"
             id="use10905" />
        </g>
      </g>
    </g>
    <g
       id="g14891"
       style="fill:#ff0000;stroke:#ff0000"
       transform="matrix(2,0,0,2,69.079503,32.97671)"
       ns0:preamble="/home/vsilv/fp/inkscapestyle.tex"
       ns0:text="1.275 MeV">
      <defs
         id="defs14893">
        <g
           id="g14895">
          <symbol
             id="textext-8ec96abe-0"
             overflow="visible">
            <path
               id="path14898"
               d=""
               style="stroke:none;" />
          </symbol>
          <symbol
             id="textext-8ec96abe-1"
             overflow="visible">
            <path
               id="path14901"
               d="M 1.046875 -6.0625 L 1.046875 -5.5625 C 1.53125 -5.5625 1.953125 -5.65625 2.40625 -5.859375 L 2.40625 -0.515625 L 1.109375 -0.515625 L 1.109375 -0.015625 L 4.359375 -0.015625 L 4.359375 -0.515625 L 3.0625 -0.515625 L 3.0625 -6.71875 L 2.984375 -6.71875 C 2.84375 -6.71875 2.765625 -6.59375 2.671875 -6.515625 C 2.203125 -6.1875 1.609375 -6.0625 1.046875 -6.0625 Z M 1.046875 -6.0625 "
               style="stroke:none;" />
          </symbol>
          <symbol
             id="textext-8ec96abe-2"
             overflow="visible">
            <path
               id="path14904"
               d="M 1.0625 -0.78125 L 1.0625 -0.015625 L 1.84375 -0.015625 L 1.84375 -0.78125 Z M 1.0625 -0.78125 "
               style="stroke:none;" />
          </symbol>
          <symbol
             id="textext-8ec96abe-3"
             overflow="visible">
            <path
               id="path14907"
               d="M 0.8125 -4.578125 C 0.984375 -5.328125 1.34375 -6.1875 2.328125 -6.1875 C 3.1875 -6.1875 4.046875 -5.640625 4.046875 -4.625 C 4.046875 -3.5 2.9375 -2.71875 2.15625 -2.046875 C 1.6875 -1.640625 1.234375 -1.21875 0.78125 -0.78125 L 0.625 -0.625 C 0.5625 -0.5625 0.515625 -0.53125 0.515625 -0.4375 L 0.515625 -0.015625 L 4.703125 -0.015625 L 4.703125 -0.5625 L 1.09375 -0.5625 C 1.34375 -0.8125 1.609375 -1.03125 1.875 -1.265625 C 2.21875 -1.578125 2.5625 -1.890625 2.921875 -2.1875 C 3.703125 -2.828125 4.703125 -3.53125 4.703125 -4.671875 C 4.703125 -5.8125 3.78125 -6.671875 2.578125 -6.71875 L 2.484375 -6.71875 C 1.640625 -6.71875 0.875 -6.3125 0.515625 -5.25 C 0.484375 -5.203125 0.453125 -5.140625 0.453125 -5.0625 L 0.453125 -5.046875 C 0.453125 -4.984375 0.515625 -4.9375 0.546875 -4.890625 C 0.625 -4.796875 0.703125 -4.671875 0.8125 -4.578125 Z M 0.8125 -4.578125 "
               style="stroke:none;" />
          </symbol>
          <symbol
             id="textext-8ec96abe-4"
             overflow="visible">
            <path
               id="path14910"
               d="M 0.4375 -6.546875 L 0.4375 -5.984375 L 4.34375 -5.984375 C 2.65625 -4.46875 1.6875 -2.203125 1.6875 0.0625 L 2.359375 0.0625 C 2.359375 -1.890625 3.046875 -3.921875 4.28125 -5.421875 C 4.375 -5.546875 4.484375 -5.6875 4.59375 -5.8125 C 4.6875 -5.90625 4.78125 -5.96875 4.78125 -6.109375 L 4.78125 -6.546875 Z M 0.4375 -6.546875 "
               style="stroke:none;" />
          </symbol>
          <symbol
             id="textext-8ec96abe-5"
             overflow="visible">
            <path
               id="path14913"
               d="M 0.921875 -6.546875 L 0.921875 -2.984375 L 1.375 -2.984375 C 1.53125 -2.984375 1.65625 -3.265625 1.78125 -3.375 C 2.046875 -3.609375 2.390625 -3.71875 2.734375 -3.71875 C 3.734375 -3.71875 4 -2.796875 4 -2.046875 C 4 -1.609375 3.90625 -1.140625 3.609375 -0.8125 C 3.3125 -0.5 2.90625 -0.359375 2.484375 -0.359375 C 1.78125 -0.359375 1.140625 -0.71875 0.765625 -1.28125 L 0.75 -1.28125 C 0.671875 -1.140625 0.5 -0.921875 0.5 -0.828125 C 0.5 -0.59375 1.28125 -0.078125 1.75 0.0625 C 2 0.125 2.25 0.15625 2.5 0.15625 L 2.578125 0.15625 C 3.765625 0.09375 4.703125 -0.875 4.703125 -2.0625 C 4.703125 -3.109375 3.953125 -4.21875 2.78125 -4.21875 C 2.328125 -4.21875 1.875 -4.046875 1.53125 -3.734375 L 1.53125 -6.015625 L 4.359375 -6.015625 L 4.359375 -6.546875 Z M 0.921875 -6.546875 "
               style="stroke:none;" />
          </symbol>
          <symbol
             id="textext-8ec96abe-6"
             overflow="visible">
            <path
               id="path14916"
               d="M 1.015625 -6.921875 L 1.015625 -0.015625 L 1.640625 -0.015625 L 1.640625 -6.296875 C 1.6875 -6.09375 1.78125 -5.90625 1.859375 -5.71875 C 2.5 -3.96875 3.234375 -2.25 3.953125 -0.53125 L 4.03125 -0.296875 C 4.078125 -0.234375 4.0625 -0.171875 4.1875 -0.171875 L 4.65625 -0.171875 C 4.75 -0.1875 5.078125 -1.140625 5.28125 -1.625 C 5.828125 -2.953125 6.359375 -4.25 6.890625 -5.578125 C 6.984375 -5.8125 7.09375 -6.046875 7.140625 -6.296875 L 7.15625 -0.015625 L 7.78125 -0.015625 L 7.78125 -6.921875 L 6.953125 -6.921875 L 6.859375 -6.90625 L 4.96875 -2.296875 L 4.390625 -0.8125 L 1.921875 -6.90625 L 1.828125 -6.921875 Z M 1.015625 -6.921875 "
               style="stroke:none;" />
          </symbol>
          <symbol
             id="textext-8ec96abe-7"
             overflow="visible">
            <path
               id="path14919"
               d="M 4.25 -1.109375 C 3.765625 -0.734375 3.3125 -0.421875 2.671875 -0.421875 C 1.625 -0.421875 1.03125 -1.40625 1.03125 -2.5 L 4.328125 -2.5 C 4.328125 -3.15625 4.21875 -3.875 3.734375 -4.359375 C 3.40625 -4.671875 2.9375 -4.828125 2.5 -4.828125 C 1.109375 -4.828125 0.421875 -3.484375 0.421875 -2.328125 L 0.421875 -2.28125 C 0.453125 -1.09375 1.34375 0.0625 2.640625 0.0625 C 3.203125 0.0625 3.71875 -0.140625 4.171875 -0.453125 C 4.234375 -0.515625 4.296875 -0.5625 4.296875 -0.640625 C 4.296875 -0.671875 4.28125 -0.703125 4.28125 -0.734375 C 4.265625 -0.859375 4.25 -0.984375 4.25 -1.109375 Z M 1.078125 -2.890625 C 1.171875 -3.578125 1.734375 -4.34375 2.484375 -4.34375 C 3.109375 -4.34375 3.578125 -3.875 3.71875 -3.296875 C 3.765625 -3.15625 3.765625 -3.015625 3.796875 -2.890625 Z M 1.078125 -2.890625 "
               style="stroke:none;" />
          </symbol>
          <symbol
             id="textext-8ec96abe-8"
             overflow="visible">
            <path
               id="path14922"
               d="M 0.15625 -6.921875 C 0.203125 -6.703125 0.3125 -6.5 0.40625 -6.296875 C 1.0625 -4.71875 1.671875 -3.15625 2.296875 -1.609375 L 2.8125 -0.34375 C 2.859375 -0.21875 2.9375 0.046875 3.015625 0.046875 L 3.546875 0.046875 C 3.5625 0.046875 3.609375 0.0625 3.65625 0.0625 C 3.796875 0.0625 3.859375 -0.234375 3.921875 -0.375 C 4.734375 -2.328125 5.5 -4.34375 6.3125 -6.296875 C 6.40625 -6.5 6.515625 -6.703125 6.5625 -6.921875 L 5.9375 -6.921875 L 5.765625 -6.546875 L 3.40625 -0.640625 L 3.390625 -0.640625 C 3.375 -0.828125 3.265625 -1 3.203125 -1.171875 C 2.484375 -3.015625 1.6875 -4.859375 0.984375 -6.703125 C 0.921875 -6.796875 0.921875 -6.921875 0.78125 -6.921875 Z M 0.15625 -6.921875 "
               style="stroke:none;" />
          </symbol>
        </g>
      </defs>
      <g
         id="textext-8ec96abe-9"
         style="fill:#ff0000">
        <g
           id="g14925"
           style="fill:#ff0000;fill-opacity:1">
          <use
             id="use14927"
             y="134.765"
             x="223.432"
             xlink:href="#textext-8ec96abe-1"
             style="fill:#ff0000" />
          <use
             id="use14929"
             y="134.765"
             x="228.662365"
             xlink:href="#textext-8ec96abe-2"
             style="fill:#ff0000" />
          <use
             id="use14931"
             y="134.765"
             x="231.568455"
             xlink:href="#textext-8ec96abe-3"
             style="fill:#ff0000" />
          <use
             id="use14933"
             y="134.765"
             x="236.79882"
             xlink:href="#textext-8ec96abe-4"
             style="fill:#ff0000" />
          <use
             id="use14935"
             y="134.765"
             x="242.029185"
             xlink:href="#textext-8ec96abe-5"
             style="fill:#ff0000" />
        </g>
        <g
           id="g14937"
           style="fill:#ff0000;fill-opacity:1">
          <use
             id="use14939"
             y="134.765"
             x="250.567134"
             xlink:href="#textext-8ec96abe-6"
             style="fill:#ff0000" />
          <use
             id="use14941"
             y="134.765"
             x="259.367098"
             xlink:href="#textext-8ec96abe-7"
             style="fill:#ff0000" />
        </g>
        <g
           id="g14943"
           style="fill:#ff0000;fill-opacity:1">
          <use
             id="use14945"
             y="134.765"
             x="263.149897"
             xlink:href="#textext-8ec96abe-8"
             style="fill:#ff0000" />
        </g>
      </g>
    </g>
  </g>
</svg>
