<?xml version="1.0" encoding="UTF-8" standalone="no"?>
<!-- Created with Inkscape (http://www.inkscape.org/) -->

<svg
   xmlns:ns0="http://www.iki.fi/pav/software/textext/"
   xmlns:osb="http://www.openswatchbook.org/uri/2009/osb"
   xmlns:dc="http://purl.org/dc/elements/1.1/"
   xmlns:cc="http://creativecommons.org/ns#"
   xmlns:rdf="http://www.w3.org/1999/02/22-rdf-syntax-ns#"
   xmlns:svg="http://www.w3.org/2000/svg"
   xmlns="http://www.w3.org/2000/svg"
   xmlns:sodipodi="http://sodipodi.sourceforge.net/DTD/sodipodi-0.dtd"
   xmlns:inkscape="http://www.inkscape.org/namespaces/inkscape"
   inkscape:version="0.48.5 r10040"
   version="1.1"
   id="svg2"
   height="200"
   width="323.60001"
   sodipodi:docname="compton_scatter.svg">
  <sodipodi:namedview
     id="base"
     pagecolor="#ffffff"
     bordercolor="#666666"
     borderopacity="1.0"
     inkscape:pageopacity="0.0"
     inkscape:pageshadow="2"
     inkscape:zoom="0.98994949"
     inkscape:cx="108.59367"
     inkscape:cy="-5.2938591"
     inkscape:document-units="px"
     inkscape:current-layer="g5909"
     showgrid="false"
     inkscape:window-width="1019"
     inkscape:window-height="890"
     inkscape:window-x="34"
     inkscape:window-y="42"
     inkscape:window-maximized="0"
     inkscape:object-nodes="false"
     inkscape:snap-smooth-nodes="true"
     inkscape:object-paths="true"
     inkscape:snap-global="false" />
  <defs
     id="defs4">
    <linearGradient
       id="linearGradient5382"
       osb:paint="solid">
      <stop
         style="stop-color:#000000;stop-opacity:1;"
         offset="0"
         id="stop5384" />
    </linearGradient>
    <filter
       color-interpolation-filters="sRGB"
       inkscape:collect="always"
       id="filter5596">
      <feGaussianBlur
         inkscape:collect="always"
         stdDeviation="0.14321367"
         id="feGaussianBlur5598" />
    </filter>
  </defs>
  <metadata
     id="metadata7">
    <rdf:RDF>
      <cc:Work
         rdf:about="">
        <dc:format>image/svg+xml</dc:format>
        <dc:type
           rdf:resource="http://purl.org/dc/dcmitype/StillImage" />
        <dc:title />
      </cc:Work>
    </rdf:RDF>
  </metadata>
  <g
     transform="translate(0,-852.36218)"
     id="layer1"
     inkscape:groupmode="layer"
     inkscape:label="Layer 1">
    <text
       transform="translate(0,952.36218)"
       sodipodi:linespacing="125%"
       id="text2985"
       y="24.285713"
       x="45.714287"
       style="font-size:12px;font-style:normal;font-weight:normal;line-height:125%;letter-spacing:0px;word-spacing:0px;fill:#000000;fill-opacity:1;stroke:none;font-family:Sans"
       xml:space="preserve"><tspan
         y="24.285713"
         x="45.714287"
         id="tspan2987"
         sodipodi:role="line" /></text>
  </g>
  <g
     transform="matrix(2.6559554,0,0,2.6559554,-22.30019,-21.990415)"
     id="g5909">
    <g
       transform="translate(0,-952.36218)"
       style="opacity:0.91769546999999996;stroke:#eb3d09;stroke-opacity:1;"
       id="g5455">
      <g
         id="g5820"
         style="fill:none;stroke:#eb3d09;stroke-opacity:1">
        <g
           transform="translate(7.0710681,1.2905096)"
           id="g5304"
           style="fill:none;stroke:#eb3d09;stroke-opacity:1" />
        <g
           id="g5834"
           style="fill:none;stroke:#eb3d09;stroke-opacity:1">
          <path
             sodipodi:nodetypes="czcsczcsczcsczcsc"
             inkscape:connector-curvature="0"
             id="path5253"
             d="m 4.5135398,1005.4716 c 0,0 0.8509237,-5.81563 2.1325684,-5.72678 1.2816446,0.0888 1.6257544,5.72678 1.6257544,5.72678 0,0 0.6689019,5.4668 1.8891634,5.4633 1.216833,0 1.869159,-5.4633 1.869159,-5.4633 0,0 0.72144,-5.7702 2.003087,-5.72678 1.281646,0.0434 1.755236,5.72678 1.755236,5.72678 0,0 0.612303,5.6071 1.863878,5.6124 1.256665,0.01 1.894444,-5.6124 1.894444,-5.6124 0,0 0.641822,-5.51702 1.873605,-5.51894 1.231783,-0.002 1.884718,5.51894 1.884718,5.51894 0,0 0.577038,5.6571 1.838594,5.6712 1.274913,0.014 1.919729,-5.6712 1.919729,-5.6712 0,0 0.51234,-5.47224 1.744122,-5.51894 1.231783,-0.0467 2.014201,5.51894 2.014201,5.51894 0,0 0.555913,5.6484 1.813309,5.6712 1.279074,0.023 1.945013,-5.6712 1.945013,-5.6712"
             style="fill:none;stroke:#eb3d09;stroke-width:0.3842223px;stroke-linecap:butt;stroke-linejoin:miter;stroke-opacity:1"
             transform="translate(7.0710681,1.29051)" />
          <path
             sodipodi:nodetypes="czcsczcsczcsczcsc"
             inkscape:connector-curvature="0"
             id="path5253-3"
             d="m 34.580121,1005.4716 c 0,0 0.850923,-5.8157 2.132568,-5.7268 1.281645,0.089 1.625755,5.7268 1.625755,5.7268 0,0 0.668901,5.4668 1.889163,5.4633 1.216833,0 1.869159,-5.4633 1.869159,-5.4633 0,0 0.72144,-5.7702 2.003087,-5.7268 1.281646,0.043 1.755236,5.7268 1.755236,5.7268 0,0 0.612303,5.6071 1.863878,5.6124 1.256665,0.01 1.894444,-5.6124 1.894444,-5.6124 0,0 0.641822,-5.5171 1.873605,-5.519 1.231783,0 1.884718,5.519 1.884718,5.519 0,0 0.577038,5.6571 1.838594,5.6712 1.274913,0.014 1.919729,-5.6712 1.919729,-5.6712 0,0 0.51234,-5.4723 1.744122,-5.519 1.231783,-0.047 2.014201,5.519 2.014201,5.519 0,0 0.555913,5.6484 1.813309,5.6712 1.279074,0.023 1.945013,-5.6712 1.945013,-5.6712"
             style="fill:none;stroke:#eb3d09;stroke-width:0.3842223px;stroke-linecap:butt;stroke-linejoin:miter;stroke-opacity:1"
             transform="translate(7.0710681,1.29051)" />
          <g
             transform="matrix(0.83971624,-0.54302545,0.54302545,0.83971624,-478.13946,164.62987)"
             inkscape:transform-center-x="-30.258692"
             id="g5341"
             style="fill:none;stroke:#eb3d09;stroke-opacity:1">
            <path
               sodipodi:nodetypes="czcsczcsczcsczcsc"
               inkscape:connector-curvature="0"
               id="path5253-1"
               d="m 4.5135398,1005.4716 c 0,0 0.8509237,-5.81563 2.1325684,-5.72678 1.2816446,0.0888 1.6257544,5.72678 1.6257544,5.72678 0,0 0.6689019,5.4668 1.8891634,5.4633 1.216833,0 1.869159,-5.4633 1.869159,-5.4633 0,0 0.72144,-5.7702 2.003087,-5.72678 1.281646,0.0434 1.755236,5.72678 1.755236,5.72678 0,0 0.612303,5.6071 1.863878,5.6124 1.256665,0.01 1.894444,-5.6124 1.894444,-5.6124 0,0 0.641822,-5.51702 1.873605,-5.51894 1.231783,-0.002 1.884718,5.51894 1.884718,5.51894 0,0 0.577038,5.6571 1.838594,5.6712 1.274913,0.014 1.919729,-5.6712 1.919729,-5.6712 0,0 0.51234,-5.47224 1.744122,-5.51894 1.231783,-0.0467 2.014201,5.51894 2.014201,5.51894 0,0 0.555913,5.6484 1.813309,5.6712 1.279074,0.023 1.945013,-5.6712 1.945013,-5.6712"
               style="fill:none;stroke:#eb3d09;stroke-width:0.3842223px;stroke-linecap:butt;stroke-linejoin:miter;stroke-opacity:1" />
            <path
               sodipodi:nodetypes="czcsczcsczcsczcsc"
               inkscape:connector-curvature="0"
               id="path5253-3-7"
               d="m 34.580121,1005.4716 c 0,0 0.850923,-5.8157 2.132568,-5.7268 1.281645,0.089 1.625755,5.7268 1.625755,5.7268 0,0 0.668901,5.4668 1.889163,5.4633 1.216833,0 1.869159,-5.4633 1.869159,-5.4633 0,0 0.72144,-5.7702 2.003087,-5.7268 1.281646,0.043 1.755236,5.7268 1.755236,5.7268 0,0 0.612303,5.6071 1.863878,5.6124 1.256665,0.01 1.894444,-5.6124 1.894444,-5.6124 0,0 0.641822,-5.5171 1.873605,-5.519 1.231783,0 1.884718,5.519 1.884718,5.519 0,0 0.577038,5.6571 1.838594,5.6712 1.274913,0.014 1.919729,-5.6712 1.919729,-5.6712 0,0 0.51234,-5.4723 1.744122,-5.519 1.231783,-0.047 2.014201,5.519 2.014201,5.519 0,0 0.555913,5.6484 1.813309,5.6712 1.279074,0.023 1.945013,-5.6712 1.945013,-5.6712"
               style="fill:none;stroke:#eb3d09;stroke-width:0.3842223px;stroke-linecap:butt;stroke-linejoin:miter;stroke-opacity:1" />
          </g>
        </g>
      </g>
    </g>
    <path
       style="fill:none;stroke:#000000;stroke-width:0.33259085;stroke-linecap:butt;stroke-linejoin:miter;stroke-miterlimit:4;stroke-opacity:0.62100459;stroke-dasharray:0.33259086, 0.6651817;stroke-dashoffset:0"
       d="m 71.68632,54.008245 55.21189,-0.06905"
       id="path5347-6"
       inkscape:connector-curvature="0" />
    <path
       style="fill:none;stroke:#2b5eff;stroke-width:0.69999999;stroke-linecap:butt;stroke-linejoin:miter;stroke-miterlimit:4;stroke-opacity:1;stroke-dasharray:none;filter:url(#filter5596)"
       d="m 71.482503,1006.9018 69.342177,26.1336"
       id="path5347-8"
       inkscape:connector-curvature="0"
       inkscape:transform-center-x="-22.763854"
       inkscape:transform-center-y="8.9792487"
       transform="matrix(0.65159062,0,0,0.65159062,24.663479,-601.78984)" />
    <path
       sodipodi:open="true"
       sodipodi:end="6.280431"
       sodipodi:start="5.7124998"
       transform="matrix(1.6195697,0,0,1.6195697,-71.30972,17.42653)"
       d="m 105.82488,11.342132 c 2.12561,3.341624 3.26068,7.226673 3.27152,11.197545"
       sodipodi:ry="20.834396"
       sodipodi:rx="20.644993"
       sodipodi:cy="22.597061"
       sodipodi:cx="88.451485"
       id="path5380"
       style="opacity:0.96707829000000001;fill:none;stroke:#000000;stroke-width:0.40010627999999998;stroke-miterlimit:4;stroke-opacity:0.82191783;stroke-dasharray:0.40010627999999998, 0.40010627999999998;stroke-dashoffset:0"
       sodipodi:type="arc" />
    <g
       id="g4309"
       transform="matrix(1,0,0,-1,-125.40981,783.35592)"
       xml:space="preserve"
       stroke-miterlimit="10.433"
       font-style="normal"
       font-variant="normal"
       font-weight="normal"
       font-stretch="normal"
       font-size-adjust="none"
       letter-spacing="normal"
       word-spacing="normal"
       ns0:text="$e^-$"
       ns0:preamble="/home/fs/uni/fp/inkscapestyle.tex"
       style="font-style:normal;font-variant:normal;font-weight:normal;font-stretch:normal;letter-spacing:normal;word-spacing:normal;text-anchor:start;fill:#2b5eff;stroke:#000000;stroke-linecap:butt;stroke-linejoin:miter;stroke-miterlimit:10.43299960999999954;stroke-opacity:1;stroke-dasharray:none;stroke-dashoffset:0;fill-opacity:1"><path
         style="fill:#2b5eff;stroke-width:0;fill-opacity:1"
         inkscape:connector-curvature="0"
         d="m 227.9,708.22 -0.03,-0.02 -0.03,-0.02 -0.05,-0.04 -0.05,-0.04 -0.06,-0.04 -0.05,-0.03 -0.03,-0.02 -0.02,-0.02 -0.03,-0.02 -0.03,-0.02 -0.03,-0.01 -0.03,-0.02 c -0.47,-0.28 -1.31,-0.57 -1.89,-0.24 -0.22,0.12 -0.38,0.31 -0.5,0.54 -0.15,0.33 -0.19,0.64 -0.15,1.1 l 0.06,0.29 0.13,0.39 c 0.23,0.56 0.67,1.13 1.26,1.35 0.45,0.17 1.04,0.1 1.31,-0.35 0.18,-0.3 0.19,-0.68 0.15,-1 h 0 -2.72 l -0.13,-0.39 h 3.16 c 0.04,0 0.1,-0.01 0.13,0.02 0.08,0.06 0.1,0.59 0.1,0.6 0.02,0.51 -0.05,1.08 -0.49,1.42 -0.1,0.06 -0.21,0.12 -0.33,0.17 -0.66,0.26 -1.4,0.04 -1.95,-0.36 -0.69,-0.51 -1.23,-1.43 -1.29,-2.41 -0.04,-0.75 0.24,-1.34 0.71,-1.7 0.81,-0.58 1.9,-0.23 2.56,0.15 0.08,0.05 0.2,0.11 0.25,0.18 0.03,0.05 0.07,0.54 0.07,0.54 z"
         id="path4311" /><path
         style="fill:#2b5eff;stroke-width:0;fill-opacity:1"
         inkscape:connector-curvature="0"
         d="m 229.47,712.73 -0.01,0 -0.01,-0.01 0,0 -0.01,0 -0.01,0 0,-0.01 -0.01,0 0,0 -0.01,-0.01 0,0 -0.01,-0.01 0,0 -0.01,-0.01 0,0 -0.01,0 0,-0.01 0,0 -0.01,-0.01 0,-0.01 0,0 -0.01,-0.01 0,-0.01 -0.01,-0.02 0,-0.01 0,-0.01 0,-0.01 0,-0.01 0,-0.02 0,-0.01 0,0 0,-0.01 0,-0.01 0,0 0.01,-0.01 0,0 0,-0.01 0,0 0.01,-0.01 0,0 0,-0.01 0.01,0 0,-0.01 0,0 0.01,-0.01 0,0 0.01,-0.01 0,0 0.01,-0.01 0,0 0.01,0 0.01,-0.01 0,0 0.01,0 0,0 0.01,-0.01 c 0.04,-0.01 0.09,0 0.13,0 h 3.93 c 0.09,0 0.23,-0.03 0.3,0.04 0.09,0.09 0.04,0.25 -0.08,0.27 -0.08,0.02 -0.18,0.01 -0.27,0.01 h -3.87 c -0.04,0 -0.08,0 -0.12,-0.01 z"
         id="path4313" /></g>    <g
       style="font-style:normal;font-variant:normal;font-weight:normal;font-stretch:normal;letter-spacing:normal;word-spacing:normal;text-anchor:start;fill:#000000;stroke:#000000;stroke-linecap:butt;stroke-linejoin:miter;stroke-miterlimit:10.43299960999999954;stroke-opacity:1;stroke-dasharray:none;stroke-dashoffset:0;fill-opacity:0.82352942"
       ns0:preamble="/home/fs/uni/fp/inkscapestyle.tex"
       ns0:text="$\\theta$"
       word-spacing="normal"
       letter-spacing="normal"
       font-size-adjust="none"
       font-stretch="normal"
       font-weight="normal"
       font-variant="normal"
       font-style="normal"
       stroke-miterlimit="10.433"
       xml:space="preserve"
       transform="matrix(1,0,0,-1,-125.67874,758.61369)"
       id="g4404"><path
         id="path4406"
         d="m 226.5,714.1 -0.07,-0.5 c 0.06,0 0.12,0 0.18,-0.01 0.32,-0.06 0.47,-0.37 0.55,-0.65 0.18,-0.66 0.07,-1.49 -0.06,-2.12 h 0 -2.4 l 0.09,-0.5 h 2.2 c -0.04,-0.25 -0.12,-0.52 -0.2,-0.77 -0.17,-0.55 -0.41,-1.1 -0.79,-1.55 -0.25,-0.29 -0.65,-0.58 -1.05,-0.41 -0.22,0.1 -0.34,0.35 -0.4,0.57 -0.15,0.49 -0.13,0.99 -0.07,1.49 0.01,0.09 0.08,0.61 0.13,0.65 0.04,0.04 0.13,0.02 0.18,0.02 l -0.09,0.5 c 0.18,0.76 0.4,1.51 0.86,2.16 0.21,0.28 0.5,0.58 0.87,0.62 l 0.07,0.5 c -0.63,-0.08 -1.12,-0.6 -1.47,-1.08 -0.56,-0.82 -0.92,-1.77 -1.08,-2.76 -0.08,-0.46 -0.13,-1.1 -0.06,-1.58 0.07,-0.71 0.39,-1.51 1.03,-1.63 0.09,0 0.17,0 0.26,0 0.64,0.05 1.13,0.59 1.48,1.08 0.52,0.73 0.84,1.58 1.03,2.45 0.13,0.62 0.21,1.3 0.11,1.93 -0.07,0.7 -0.42,1.48 -1.06,1.58 -0.08,0.01 -0.16,0.02 -0.24,0.01 z"
         inkscape:connector-curvature="0"
         style="fill:#000000;stroke-width:0;fill-opacity:0.82352942" /></g>    <g
       id="g3055"
       transform="matrix(1,0,0,-1,-205.37875,778.50736)"
       xml:space="preserve"
       stroke="black"
       stroke-linecap="butt"
       stroke-linejoin="miter"
       stroke-miterlimit="10.433"
       stroke-dasharray="none"
       stroke-dashoffset="0"
       stroke-opacity="1"
       fill="none"
       fill-rule="evenodd"
       fill-opacity="1"
       font-style="normal"
       font-variant="normal"
       font-weight="normal"
       font-stretch="normal"
       font-size-adjust="none"
       letter-spacing="normal"
       word-spacing="normal"
       text-anchor="start"
       ns0:text="$\\gamma$"
       ns0:preamble="/home/fs/uni/fp/inkscapestyle.tex"
       style="font-style:normal;font-variant:normal;font-weight:normal;font-stretch:normal;letter-spacing:normal;word-spacing:normal;text-anchor:start;fill:#ff3d09;stroke:#000000;stroke-linecap:butt;stroke-linejoin:miter;stroke-miterlimit:10.43299960999999954;stroke-opacity:1;stroke-dasharray:none;stroke-dashoffset:0;fill-opacity:1"><path
         d="M223.4,709.83 H224.04 C224.14,710.27,224.37,710.69,224.71,710.99 C225.02,711.24,225.42,711.37,225.81,711.23 C226.38,711.02,226.59,710.38,226.76,709.79 C226.84,709.47,227.12,708.3,227.08,707.99 C227.08,707.93,227.05,707.87,227.04,707.81 C226.89,707.27,226.58,706.06,226.58,705.64 C226.58,705.5,226.6,705.31,226.77,705.3 C227.11,705.28,227.23,705.9,227.28,706.14 C227.39,706.67,227.47,707.07,227.53,707.67 C227.54,707.8,227.54,707.94,227.56,708.07 C227.56,708.13,227.56,708.18,227.58,708.24 C227.66,708.52,227.78,708.79,227.89,709.06 C228.13,709.66,229.03,711.73,229.06,711.81 C228.84,711.81,228.63,711.82,228.44,711.79 L228.35,711.62 C228.06,710.89,227.77,710.16,227.52,709.38 C227.5,709.45,227.49,709.53,227.48,709.61 C227.35,710.4,227.08,711.15,226.53,711.59 C226.02,711.98,225.32,711.97,224.76,711.68 C224.27,711.42,223.88,710.98,223.63,710.48 C223.52,710.27,223.44,710.05,223.4,709.83 Z "
         stroke-width="0"
         fill="black"
         id="path3057"
         style="fill-opacity:1;fill:#ff3d09" /></g>    <g
       style="font-style:normal;font-variant:normal;font-weight:normal;font-stretch:normal;letter-spacing:normal;word-spacing:normal;text-anchor:start;fill:#ff3d09;stroke:#ff3d09;stroke-linecap:butt;stroke-linejoin:miter;stroke-miterlimit:10.43299960999999954;stroke-opacity:1;stroke-dasharray:none;stroke-dashoffset:0;fill-opacity:1"
       ns0:preamble="/home/fs/uni/fp/inkscapestyle.tex"
       ns0:text="$\\gamma\'$"
       text-anchor="start"
       word-spacing="normal"
       letter-spacing="normal"
       font-size-adjust="none"
       font-stretch="normal"
       font-weight="normal"
       font-variant="normal"
       font-style="normal"
       fill-opacity="1"
       fill-rule="evenodd"
       fill="none"
       stroke-opacity="1"
       stroke-dashoffset="0"
       stroke-dasharray="none"
       stroke-miterlimit="10.433"
       stroke-linejoin="miter"
       stroke-linecap="butt"
       stroke="black"
       xml:space="preserve"
       transform="matrix(1,0,0,-1,-117.87955,725.80332)"
       id="content"><path
         id="path3125"
         fill="black"
         stroke-width="0"
         d="M223.4,709.83 H224.04 C224.14,710.27,224.37,710.69,224.71,710.99 C225.02,711.24,225.42,711.37,225.81,711.23 C226.38,711.02,226.59,710.38,226.76,709.79 C226.84,709.47,227.12,708.3,227.08,707.99 C227.08,707.93,227.05,707.87,227.04,707.81 C226.89,707.27,226.58,706.06,226.58,705.64 C226.58,705.5,226.6,705.31,226.77,705.3 C227.11,705.28,227.23,705.9,227.28,706.14 C227.39,706.67,227.47,707.07,227.53,707.67 C227.54,707.8,227.54,707.94,227.56,708.07 C227.56,708.13,227.56,708.18,227.58,708.24 C227.66,708.52,227.78,708.79,227.89,709.06 C228.13,709.66,229.03,711.73,229.06,711.81 C228.84,711.81,228.63,711.82,228.44,711.79 L228.35,711.62 C228.06,710.89,227.77,710.16,227.52,709.38 C227.5,709.45,227.49,709.53,227.48,709.61 C227.35,710.4,227.08,711.15,226.53,711.59 C226.02,711.98,225.32,711.97,224.76,711.68 C224.27,711.42,223.88,710.98,223.63,710.48 C223.52,710.27,223.44,710.05,223.4,709.83 Z "
         style="stroke:#ff3d09;stroke-opacity:1;fill-opacity:1;fill:#ff3d09" /><path
         id="path3127"
         fill="black"
         stroke-width="0"
         d="M230.82,714.62 L230.82,714.62 L230.82,714.62 L230.81,714.62 L230.81,714.62 L230.8,714.62 L230.79,714.62 L230.79,714.61 L230.78,714.61 L230.77,714.61 L230.77,714.61 L230.76,714.61 L230.75,714.6 L230.75,714.6 L230.74,714.6 L230.73,714.6 L230.72,714.59 C230.56,714.52,230.52,714.36,230.48,714.21 L230.39,713.93 L229.76,711.78 C229.74,711.71,229.58,711.21,229.59,711.16 C229.6,711.09,229.71,711.07,229.77,711.05 C229.8,711.04,229.83,711.03,229.86,711.03 C229.94,711.04,229.97,711.16,229.99,711.22 L230.26,711.83 L230.91,713.33 C230.98,713.47,231.22,713.99,231.26,714.12 C231.38,714.45,231.05,714.66,230.82,714.62 Z "
         style="stroke:#ff3d09;stroke-opacity:1;fill-opacity:1;fill:#ff3d09" /></g>  </g>
</svg>
